<svg width="720" height="848" viewBox="0 0 720 848" fill="none" xmlns="http://www.w3.org/2000/svg">
<g clip-path="url(#clip0_3_69)">
<rect width="720" height="848" fill="#7552FF"/>
<ellipse cx="86.692" cy="62.291" rx="86.692" ry="62.291" transform="matrix(0.87065 -0.491902 0.398195 0.917301 260.062 203.288)" fill="white"/>
<ellipse cx="69.0988" cy="52.6403" rx="69.0988" ry="52.6403" transform="matrix(0.87065 -0.491902 0.398195 0.917301 283.554 198.457)" fill="#7552FF"/>
<circle cx="392.061" cy="147.943" r="19.1017" fill="white"/>
<ellipse cx="387.51" cy="140.671" rx="9.5" ry="6.5" transform="rotate(-33.5942 387.51 140.671)" fill="#7552FF"/>
<circle cx="332.291" cy="231.128" r="57.9212" fill="white"/>
<path d="M383 226.231C383 250.659 361.725 274 335.481 274C309.237 274 286.252 251.552 288.105 225.68C289.981 199.491 309.237 182 335.481 182C361.725 182 383 201.803 383 226.231Z" fill="#7552FF"/>
<path d="M160.225 363.834H145.675L126.247 336.935V363.834H114.292V308.777H126.247V334.182L144.259 308.777H158.181L139.382 335.126L160.225 363.834ZM185.802 365.014C177.413 365.014 170.413 362.287 164.802 356.834C159.244 351.328 156.465 344.486 156.465 336.306C156.465 328.126 159.244 321.309 164.802 315.856C170.413 310.35 177.413 307.597 185.802 307.597C191.308 307.597 196.289 308.856 200.746 311.373C205.256 313.837 208.769 317.272 211.286 321.676C213.803 326.028 215.061 330.905 215.061 336.306C215.061 344.538 212.282 351.381 206.724 356.834C201.166 362.287 194.192 365.014 185.802 365.014ZM185.802 353.767C189.053 353.767 191.99 353.033 194.612 351.564C197.233 350.044 199.278 347.946 200.746 345.272C202.267 342.598 203.027 339.609 203.027 336.306C203.027 331.324 201.376 327.182 198.072 323.879C194.821 320.523 190.731 318.845 185.802 318.845C180.926 318.845 176.81 320.523 173.454 323.879C170.151 327.182 168.499 331.324 168.499 336.306C168.499 341.287 170.151 345.456 173.454 348.812C176.81 352.115 180.926 353.767 185.802 353.767ZM246.541 365.014C241.246 365.014 236.421 363.782 232.069 361.317C227.717 358.8 224.309 355.366 221.844 351.014C219.38 346.609 218.148 341.733 218.148 336.384C218.148 328.204 220.848 321.362 226.249 315.856C231.702 310.35 238.466 307.597 246.541 307.597C253.253 307.597 259.047 309.616 263.924 313.654C268.8 317.691 271.894 322.987 273.205 329.542H261.25C260.515 327.392 259.441 325.53 258.025 323.957C256.609 322.332 254.905 321.099 252.912 320.261C250.972 319.369 248.849 318.923 246.541 318.923C241.875 318.923 237.968 320.601 234.822 323.957C231.729 327.261 230.182 331.403 230.182 336.384C230.182 341.313 231.729 345.429 234.822 348.733C237.968 352.036 241.875 353.688 246.541 353.688C250.16 353.688 253.279 352.665 255.901 350.621C258.523 348.576 260.332 345.796 261.328 342.283H273.362C272.104 349.1 269.01 354.606 264.081 358.8C259.205 362.943 253.358 365.014 246.541 365.014ZM346.311 363.834H334.199L328.772 327.89L312.333 363.756H309.423L292.985 327.89L287.558 363.834H275.367L284.018 308.777H295.974L310.839 342.519L325.783 308.777H337.738L346.311 363.834ZM377.912 365.014C369.522 365.014 362.522 362.287 356.912 356.834C351.354 351.328 348.575 344.486 348.575 336.306C348.575 328.126 351.354 321.309 356.912 315.856C362.522 310.35 369.522 307.597 377.912 307.597C383.418 307.597 388.399 308.856 392.856 311.373C397.366 313.837 400.879 317.272 403.396 321.676C405.912 326.028 407.171 330.905 407.171 336.306C407.171 344.538 404.392 351.381 398.834 356.834C393.276 362.287 386.302 365.014 377.912 365.014ZM377.912 353.767C381.163 353.767 384.099 353.033 386.721 351.564C389.343 350.044 391.388 347.946 392.856 345.272C394.377 342.598 395.137 339.609 395.137 336.306C395.137 331.324 393.485 327.182 390.182 323.879C386.931 320.523 382.841 318.845 377.912 318.845C373.036 318.845 368.919 320.523 365.564 323.879C362.26 327.182 360.608 331.324 360.608 336.306C360.608 341.287 362.26 345.456 365.564 348.812C368.919 352.115 373.036 353.767 377.912 353.767ZM413.403 308.777H456.269V363.834H444.393V319.867H425.359V363.834H413.403V308.777ZM491.827 365.014C483.437 365.014 476.437 362.287 470.826 356.834C465.268 351.328 462.489 344.486 462.489 336.306C462.489 328.126 465.268 321.309 470.826 315.856C476.437 310.35 483.437 307.597 491.827 307.597C497.332 307.597 502.314 308.856 506.771 311.373C511.28 313.837 514.793 317.272 517.31 321.676C519.827 326.028 521.085 330.905 521.085 336.306C521.085 344.538 518.306 351.381 512.748 356.834C507.19 362.287 500.216 365.014 491.827 365.014ZM491.827 353.767C495.078 353.767 498.014 353.033 500.636 351.564C503.257 350.044 505.302 347.946 506.771 345.272C508.291 342.598 509.052 339.609 509.052 336.306C509.052 331.324 507.4 327.182 504.096 323.879C500.845 320.523 496.755 318.845 491.827 318.845C486.95 318.845 482.834 320.523 479.478 323.879C476.175 327.182 474.523 331.324 474.523 336.306C474.523 341.287 476.175 345.456 479.478 348.812C482.834 352.115 486.95 353.767 491.827 353.767ZM548.476 308.777C554.034 308.777 558.674 310.586 562.397 314.204C566.12 317.77 567.982 322.279 567.982 327.733C567.982 333.133 566.12 337.643 562.397 341.261C558.674 344.826 554.034 346.609 548.476 346.609H539.273V363.834H527.318V308.777H548.476ZM548.004 335.598C550.363 335.598 552.251 334.864 553.667 333.396C555.135 331.927 555.869 330.04 555.869 327.733C555.869 325.425 555.135 323.538 553.667 322.07C552.251 320.549 550.363 319.789 548.004 319.789H539.273V335.598H548.004ZM611.089 308.777V319.867H595.752V363.834H583.796V319.867H568.538V308.777H611.089Z" fill="white"/>
<path d="M628.933 -667.969C622.625 -297.487 529.854 -419.778 231.067 -25.9877C-44.9441 337.786 356.357 546.227 707.228 543.184C908.537 549.946 814.551 791.297 1063.99 799.527C1313.43 807.756 1276.74 445.232 1661.13 451.005M667.305 -625.734C660.495 -286.24 574.801 -393.258 298.852 -30.1583C45.3362 303.612 413.419 501.027 737.822 497.603C925.802 503.148 832.031 725.522 1061.94 733.104C1296.98 740.852 1272.92 407.926 1626.85 411.354M705.676 -583.499C698.365 -274.992 619.748 -366.739 366.638 -34.3292C135.617 269.438 470.481 455.827 768.416 452.021C943.067 456.349 849.511 659.746 1059.89 666.681C1280.52 673.947 1269.11 370.62 1592.56 371.702M744.049 -541.267C736.237 -263.747 664.697 -340.221 434.424 -38.5018C225.899 235.263 527.544 410.626 799.012 406.439C960.334 409.549 866.992 593.968 1057.83 600.256C1264.07 607.041 1265.3 333.313 1558.28 332.049M782.423 -499.035C774.109 -252.504 709.646 -313.705 502.211 -42.6762C316.182 201.085 584.608 365.422 829.608 360.854C977.602 362.747 884.475 528.188 1055.78 533.83C1247.61 540.133 1261.49 296.003 1524 292.394M1052.57 19.9846C992.841 27.2212 956.948 -59.9323 985.508 -93.6728C1033.08 -149.869 1048 -195.574 1059.83 -225.194C1091.31 -304.068 1172.72 -306.302 1226.93 -264.256C1281.15 -222.209 1240.82 -192.257 1322.6 -159.61C1422.04 -119.915 1357.87 -19.1203 1298 5.25198C1248.79 25.2807 1271.95 52.207 1180.94 49.2766C1146.37 48.1635 1107.26 13.3579 1052.57 19.9846ZM860.75 313.904C642.218 318.854 407.011 165.543 570.545 -48.2154C755.141 -288.554 812.528 -242.625 821.343 -458.169C839.096 -696.102 1210.33 -756.354 1346.23 -554.145C1482.14 -351.936 1399.24 -303.475 1594 -221.576C1796.78 -136.473 1727.15 243.444 1490.26 251.373C1258.23 257.328 1231.71 471.86 1054.28 466.039C902.503 461.044 995.416 314.581 860.75 313.904ZM892.538 265.341C700.473 270.671 498.485 128.387 639.523 -55.3686C801.282 -265.016 851.592 -234.36 860.908 -418.917C880.95 -630.34 1203.88 -680.923 1326.17 -505.407C1448.46 -329.892 1372.65 -284.516 1548.58 -210.825C1734.14 -133.29 1664.56 198.07 1457.17 208.739C1255.61 217.04 1216.44 401.972 1053.42 396.633C921.177 392.286 1013.87 264.8 892.538 265.341ZM924.363 216.688C758.765 222.399 589.996 91.1412 708.539 -62.6112C847.459 -241.569 890.692 -226.185 900.51 -379.754C922.841 -564.667 1197.46 -605.58 1306.14 -456.759C1414.81 -307.937 1346.11 -265.646 1503.21 -200.164C1671.54 -130.197 1602 152.606 1424.12 166.016C1253.03 176.662 1201.22 331.996 1052.59 327.139C939.887 323.438 1032.37 214.93 924.363 216.688ZM956.242 167.906C817.112 173.999 681.562 53.7674 777.609 -69.982C893.691 -218.249 929.847 -218.137 940.166 -340.719C964.786 -499.123 1191.11 -530.366 1286.16 -408.238C1381.22 -286.111 1319.61 -246.904 1457.88 -189.631C1608.99 -127.232 1539.5 107.014 1396.31 135.385C1255.69 148.377 1186.05 261.891 1051.82 257.516C958.652 254.462 1050.92 164.931 956.242 167.906ZM988.201 118.937C875.538 125.411 773.207 16.2053 846.759 -77.5411C940.003 -195.118 969.082 -210.279 979.903 -301.873C1006.81 -433.767 1184.83 -455.34 1266.27 -359.906C1347.72 -264.472 1293.2 -228.35 1412.64 -179.286C1546.53 -124.455 1477.08 61.2331 1363.39 92.3453C1253.24 107.683 1170.96 191.599 1051.14 187.705C977.496 185.298 1069.55 114.745 988.201 118.937ZM1020.28 69.6803C934.089 76.5357 864.977 -21.644 916.033 -85.3874C986.439 -172.274 1008.44 -202.707 1019.76 -263.314C1048.96 -368.698 1178.67 -380.602 1246.5 -311.862C1314.33 -243.121 1266.91 -210.084 1367.52 -169.228C1484.18 -121.965 1419.97 27.3863 1330.59 49.0182C1250.92 66.7013 1286.72 123.226 1181.3 119.814C1127.2 118.054 1088.31 64.2707 1020.28 69.6803Z" stroke="url(#paint0_linear_3_69)" stroke-opacity="0.6" stroke-width="27"/>
<path d="M1179.79 1138.98C866.838 1037.28 994.806 990.307 738.111 634.193C500.983 305.225 219.633 591.79 130.981 890.524C72.8919 1059.71 -107.613 917.141 -179.464 1126.82C-251.314 1336.49 66.067 1399.59 -38.7904 1724.51M1133.95 1160.58C847.44 1066.52 960.599 1021.58 724.026 692.837C506.526 390.773 243.177 651.997 161.73 928.356C108.141 1086.54 -56.3051 949.088 -122.527 1142.34C-190.223 1339.91 98.7365 1406.06 3.79467 1705.7M1088.11 1182.18C828.042 1095.75 926.392 1052.85 709.942 751.482C512.069 476.321 266.721 712.205 192.48 966.187C143.391 1113.37 -4.99648 981.035 -65.5896 1157.87C-129.132 1343.34 131.406 1412.52 46.38 1686.9M1042.27 1203.78C808.645 1124.98 892.186 1084.12 695.858 810.128C517.613 561.871 290.266 772.414 223.232 1004.02C178.641 1140.2 46.3133 1012.98 -8.65114 1173.4C-68.0393 1346.76 164.077 1418.99 88.9664 1668.1M996.431 1225.39C789.25 1154.22 857.982 1115.4 681.776 868.776C523.159 647.423 313.812 832.625 253.984 1041.86C213.893 1167.03 97.6242 1044.93 48.2885 1188.93C-6.94547 1350.19 196.749 1425.45 131.554 1649.3M485.458 1319.82C494.844 1267.22 578.184 1259.4 599.408 1292.43C634.758 1347.43 669.688 1371.99 691.765 1389.74C750.554 1436.98 731.282 1506.69 681.481 1541.79C631.68 1576.9 616.732 1534.86 567.744 1595.82C508.18 1669.94 439.275 1589.24 434.148 1532.06C429.936 1485.07 401.049 1497.73 427.204 1421.21C437.139 1392.14 476.863 1367.99 485.458 1319.82ZM285.753 1080.51C338.376 893.654 529.721 733.793 668.711 928.242C824.794 1147.49 770.871 1184.27 951.609 1247.81C1149.03 1324.75 1103.67 1655.65 896.621 1718.48C689.574 1781.3 669.979 1698.31 549.791 1842.39C424.796 1992.45 120.294 1834.54 175.159 1631.32C230.439 1432.74 55.1652 1354.43 106.245 1205.28C149.952 1077.7 250.162 1194.68 285.753 1080.51ZM318.726 1120.13C364.142 955.65 537.486 821.13 656.848 988.675C792.81 1180.55 753.695 1215.3 907.99 1271.2C1082.31 1343.19 1041.29 1630.56 860.452 1688.76C679.613 1746.97 660.793 1670.8 552.471 1801.03C438.381 1938.44 175.1 1793.19 219.966 1614.31C265.33 1440.99 118.479 1359.65 165.404 1222.6C203.483 1111.44 287.633 1223.3 318.726 1120.13ZM351.764 1159.8C389.974 1017.7 545.318 908.522 645.052 1049.16C760.891 1213.66 736.586 1246.37 864.437 1294.64C1015.65 1361.69 978.981 1605.52 824.35 1659.11C669.719 1712.69 651.673 1643.35 555.218 1759.73C452.033 1884.47 229.972 1751.89 264.84 1597.35C300.289 1449.3 181.859 1364.91 224.63 1239.97C257.08 1145.23 325.171 1251.98 351.764 1159.8ZM384.897 1199.56C415.901 1079.83 553.244 995.993 633.351 1109.73C729.068 1246.86 719.571 1277.53 820.979 1318.17C949.086 1380.26 916.766 1580.57 788.342 1629.53C659.919 1678.49 642.647 1615.98 558.059 1718.5C465.779 1830.59 284.939 1710.67 298.082 1581.7C323.616 1458.91 245.333 1370.26 283.951 1257.42C310.772 1179.1 362.804 1280.73 384.897 1199.56ZM418.17 1239.43C441.968 1142.08 561.309 1083.58 621.789 1170.41C697.383 1280.17 702.696 1308.8 777.66 1341.81C882.661 1398.95 854.69 1555.73 752.474 1600.07C650.258 1644.41 633.761 1588.73 561.039 1677.39C479.665 1776.82 340.045 1669.57 343.19 1564.94C358.808 1467.42 308.947 1375.72 343.41 1274.99C364.603 1213.09 400.576 1309.6 418.17 1239.43ZM451.653 1279.48C468.245 1204.51 569.586 1171.35 610.438 1231.28C665.91 1313.66 686.032 1340.26 734.552 1365.63C816.447 1417.83 792.826 1531.07 716.817 1570.79C640.809 1610.51 625.086 1561.65 564.231 1636.46C493.762 1723.24 383.637 1629.88 388.509 1548.36C394.211 1476.1 336.903 1491.8 367.212 1403.18C382.776 1357.69 438.559 1338.65 451.653 1279.48Z" stroke="url(#paint1_linear_3_69)" stroke-width="29.5547"/>
<rect x="-20.4928" y="448.193" width="467.979" height="117.692" rx="36.8413" transform="rotate(6.10041 -20.4928 448.193)" fill="#B7F900"/>
<path d="M28.2221 495.859L48.2678 498.001L45.516 523.748L39.9621 523.155L42.1595 502.594L33.2585 501.643L31.0611 522.203L25.4704 521.606L28.2221 495.859ZM62.3814 504.904C65.373 505.224 67.7434 506.482 69.4928 508.677C71.2667 510.876 71.9925 513.483 71.6701 516.499C71.3478 519.515 70.0861 521.922 67.885 523.721C65.6866 525.495 63.1038 526.223 60.1368 525.906C58.1016 525.688 56.3338 524.942 54.8333 523.665L53.9528 531.904L48.5828 531.33L51.4721 504.296L55.0398 504.677L55.7667 506.578C57.6999 505.197 59.9048 504.639 62.3814 504.904ZM56.5042 518.822C57.424 519.962 58.6563 520.614 60.2011 520.779C61.7705 520.947 63.1251 520.571 64.265 519.651C65.405 518.731 66.0588 517.487 66.2265 515.917C66.3366 514.887 66.2032 513.931 65.8265 513.047C65.4497 512.164 64.8693 511.445 64.0854 510.89C63.326 510.337 62.4314 510.006 61.4015 509.896C60.3716 509.786 59.415 509.919 58.5315 510.296C57.648 510.673 56.9287 511.253 56.3737 512.037C55.8432 512.824 55.523 513.732 55.4129 514.762C55.2452 516.331 55.609 517.684 56.5042 518.822ZM82.3433 528.242C80.3081 528.025 78.5175 527.374 76.9716 526.292C75.4256 525.209 74.272 523.821 73.5105 522.127C72.7762 520.412 72.5139 518.573 72.7236 516.612C73.0459 513.596 74.3308 511.203 76.5783 509.435C78.8258 507.666 81.4943 506.947 84.584 507.277C87.649 507.605 90.0931 508.87 91.916 511.074C93.7389 513.278 94.4892 515.887 94.1669 518.903C93.8472 521.895 92.55 524.286 90.2754 526.077C88.0279 527.845 85.3838 528.567 82.3433 528.242ZM82.8818 523.203C84.4266 523.368 85.7432 523.001 86.8314 522.1C87.9223 521.175 88.553 519.916 88.7233 518.322C88.8936 516.728 88.5421 515.376 87.6687 514.266C86.798 513.131 85.5779 512.48 84.0086 512.312C82.4638 512.147 81.146 512.527 80.0551 513.452C78.9668 514.352 78.3375 515.6 78.1671 517.193C78.0833 517.978 78.1273 518.727 78.2991 519.44C78.4954 520.155 78.8017 520.771 79.2178 521.286C79.6339 521.802 80.1463 522.229 80.755 522.567C81.3882 522.907 82.0972 523.119 82.8818 523.203ZM110.725 510.629L110.218 515.374L102.383 514.536L100.768 529.653L95.5081 529.091L97.6308 509.229L110.725 510.629ZM123.412 511.427C126.404 511.746 128.774 513.004 130.523 515.2C132.297 517.399 133.023 520.006 132.701 523.022C132.378 526.038 131.117 528.445 128.916 530.244C126.717 532.017 124.134 532.746 121.167 532.429C119.132 532.211 117.364 531.464 115.864 530.188L114.983 538.427L109.613 537.853L112.503 510.819L116.07 511.2L116.797 513.101C118.731 511.72 120.935 511.162 123.412 511.427ZM117.535 525.344C118.455 526.484 119.687 527.137 121.232 527.302C122.801 527.47 124.156 527.094 125.296 526.174C126.436 525.254 127.089 524.009 127.257 522.44C127.367 521.41 127.234 520.454 126.857 519.57C126.48 518.687 125.9 517.967 125.116 517.412C124.357 516.86 123.462 516.529 122.432 516.419C121.402 516.309 120.446 516.442 119.562 516.819C118.679 517.195 117.959 517.776 117.404 518.56C116.874 519.346 116.554 520.254 116.444 521.284C116.276 522.854 116.64 524.207 117.535 525.344ZM152.327 515.038L156.336 515.466L154.214 535.328L149.984 534.876L149.731 533.063C147.749 534.439 145.519 534.994 143.043 534.73C140.051 534.41 137.669 533.151 135.895 530.952C134.148 528.732 133.436 526.114 133.758 523.098C134.078 520.106 135.325 517.722 137.499 515.946C139.697 514.172 142.292 513.445 145.284 513.764C147.809 514.034 149.893 515.075 151.534 516.888L152.327 515.038ZM140.293 527.739C141.213 528.879 142.445 529.532 143.99 529.697C145.559 529.865 146.914 529.489 148.054 528.569C149.194 527.649 149.848 526.404 150.015 524.835C150.183 523.266 149.807 521.911 148.887 520.771C147.967 519.631 146.735 518.979 145.19 518.814C144.16 518.704 143.202 518.849 142.316 519.251C141.457 519.63 140.75 520.212 140.195 520.996C139.643 521.755 139.312 522.65 139.202 523.679C139.034 525.249 139.398 526.602 140.293 527.739ZM183.834 538.531L178.648 537.977L178.087 525.826L170.663 537.161L169.633 537.051L164.772 524.403L161.655 536.161L156.469 535.606L161.902 516.098L166.5 516.59L171.072 528.462L178.123 517.832L182.684 518.32L183.834 538.531ZM212.032 541.545L206.846 540.991L206.284 528.84L198.861 540.174L197.831 540.064L192.97 527.417L189.853 539.174L184.667 538.62L190.1 519.112L194.698 519.604L199.269 531.476L206.32 520.846L210.881 521.333L212.032 541.545ZM230.877 523.47L233.893 523.793L231.77 543.654L226.584 543.1L227.708 532.581L217.352 542.113L214.299 541.787L216.422 521.925L221.608 522.48L220.496 532.889L230.877 523.47ZM248.489 524.795C251.481 525.114 253.851 526.372 255.6 528.568C257.374 530.766 258.1 533.374 257.778 536.39C257.455 539.406 256.194 541.813 253.993 543.611C251.794 545.385 249.212 546.114 246.245 545.797C244.209 545.579 242.441 544.832 240.941 543.556L240.06 551.795L234.69 551.221L237.58 524.187L241.148 524.568L241.874 526.468C243.808 525.088 246.013 524.53 248.489 524.795ZM242.612 538.712C243.532 539.852 244.764 540.505 246.309 540.67C247.878 540.837 249.233 540.461 250.373 539.542C251.513 538.622 252.167 537.377 252.334 535.808C252.444 534.778 252.311 533.821 251.934 532.938C251.557 532.054 250.977 531.335 250.193 530.78C249.434 530.228 248.539 529.896 247.509 529.786C246.479 529.676 245.523 529.81 244.639 530.186C243.756 530.563 243.036 531.144 242.481 531.928C241.951 532.714 241.631 533.622 241.521 534.652C241.353 536.221 241.717 537.575 242.612 538.712ZM268.451 548.133C266.416 547.915 264.625 547.265 263.079 546.182C261.533 545.099 260.38 543.711 259.618 542.018C258.884 540.302 258.622 538.464 258.831 536.502C259.154 533.486 260.439 531.094 262.686 529.325C264.933 527.556 267.602 526.837 270.692 527.167C273.757 527.495 276.201 528.761 278.024 530.964C279.847 533.168 280.597 535.778 280.275 538.794C279.955 541.786 278.658 544.177 276.383 545.967C274.136 547.736 271.492 548.458 268.451 548.133ZM268.99 543.094C270.534 543.259 271.851 542.891 272.939 541.991C274.03 541.065 274.661 539.806 274.831 538.212C275.001 536.618 274.65 535.266 273.776 534.156C272.906 533.021 271.686 532.37 270.116 532.203C268.572 532.037 267.254 532.417 266.163 533.342C265.074 534.243 264.445 535.49 264.275 537.084C264.191 537.869 264.235 538.617 264.407 539.33C264.603 540.046 264.909 540.661 265.325 541.177C265.742 541.692 266.254 542.119 266.863 542.457C267.496 542.798 268.205 543.01 268.99 543.094ZM297.015 539.951C297.878 540.465 298.511 541.152 298.915 542.014C299.346 542.854 299.505 543.801 299.393 544.855C299.212 546.547 298.459 547.905 297.134 548.929C295.837 549.931 294.281 550.335 292.466 550.141L281.616 548.982L283.739 529.12L294.479 530.268C296.17 530.449 297.505 531.075 298.482 532.146C299.485 533.196 299.909 534.457 299.751 535.928C299.657 536.811 299.361 537.61 298.863 538.325C298.392 539.019 297.776 539.561 297.015 539.951ZM294.397 536.248C294.439 535.856 294.389 535.516 294.246 535.228C294.106 534.915 293.884 534.668 293.581 534.487C293.305 534.284 292.971 534.162 292.579 534.12L288.57 533.691L288.161 537.516L292.17 537.945C292.759 538.008 293.256 537.875 293.663 537.546C294.095 537.221 294.34 536.788 294.397 536.248ZM291.598 545.733C292.26 545.804 292.806 545.689 293.235 545.387C293.666 545.061 293.915 544.592 293.98 543.979C294.049 543.341 293.906 542.818 293.553 542.408C293.2 541.998 292.693 541.758 292.03 541.687L287.764 541.231L287.331 545.277L291.598 545.733ZM319.612 532.917L323.621 533.345L321.498 553.207L317.269 552.755L317.016 550.942C315.034 552.318 312.804 552.873 310.328 552.608C307.336 552.289 304.953 551.029 303.179 548.831C301.433 546.611 300.72 543.992 301.043 540.976C301.363 537.985 302.609 535.601 304.783 533.824C306.982 532.05 309.577 531.323 312.568 531.643C315.094 531.913 317.178 532.954 318.819 534.766L319.612 532.917ZM307.578 545.618C308.498 546.758 309.73 547.411 311.275 547.576C312.844 547.743 314.199 547.367 315.339 546.448C316.479 545.528 317.132 544.283 317.3 542.714C317.468 541.145 317.092 539.79 316.172 538.65C315.252 537.51 314.02 536.858 312.475 536.692C311.445 536.582 310.487 536.728 309.601 537.129C308.742 537.509 308.035 538.09 307.48 538.874C306.928 539.634 306.597 540.528 306.486 541.558C306.319 543.128 306.682 544.481 307.578 545.618ZM339.89 535.121L345.26 535.695L343.137 555.557L337.767 554.983L338.581 547.369L331.372 546.599L330.558 554.212L325.188 553.639L327.311 533.777L332.681 534.351L331.895 541.707L339.104 542.477L339.89 535.121ZM363.391 537.633L366.407 537.955L364.284 557.817L359.098 557.263L360.222 546.743L349.866 556.276L346.813 555.95L348.936 536.088L354.122 536.642L353.009 547.051L363.391 537.633ZM388.313 550.266C388.258 550.781 388.165 551.305 388.034 551.836L373.027 550.232C373.104 551.605 373.52 552.703 374.275 553.528C375.057 554.331 376.11 554.803 377.434 554.944C378.341 555.041 379.184 554.933 379.961 554.619C380.742 554.281 381.378 553.778 381.871 553.112L387.535 553.717C386.569 555.797 385.135 557.379 383.233 558.466C381.331 559.552 379.228 559.972 376.923 559.726C373.981 559.411 371.636 558.144 369.889 555.924C368.142 553.703 367.428 551.109 367.745 548.142C367.871 546.965 368.15 545.855 368.585 544.81C369.043 543.768 369.625 542.85 370.33 542.057C371.059 541.267 371.873 540.61 372.772 540.086C373.674 539.538 374.671 539.148 375.762 538.918C376.853 538.687 377.987 538.635 379.164 538.761C381.15 538.973 382.878 539.629 384.348 540.728C385.842 541.83 386.921 543.223 387.584 544.906C388.272 546.591 388.515 548.378 388.313 550.266ZM378.676 543.321C377.475 543.193 376.422 543.415 375.517 543.988C374.637 544.564 373.987 545.424 373.567 546.57L383.167 547.596C383.009 546.761 382.725 546.048 382.317 545.459C381.911 544.845 381.393 544.356 380.762 543.991C380.156 543.628 379.461 543.405 378.676 543.321Z" fill="#332E2D"/>
<path d="M28.2221 495.859L48.2678 498.001L45.516 523.748L39.9621 523.155L42.1595 502.594L33.2585 501.643L31.0611 522.203L25.4704 521.606L28.2221 495.859ZM62.3814 504.904C65.373 505.224 67.7434 506.482 69.4928 508.677C71.2667 510.876 71.9925 513.483 71.6701 516.499C71.3478 519.515 70.0861 521.922 67.885 523.721C65.6866 525.495 63.1038 526.223 60.1368 525.906C58.1016 525.688 56.3338 524.942 54.8333 523.665L53.9528 531.904L48.5828 531.33L51.4721 504.296L55.0398 504.677L55.7667 506.578C57.6999 505.197 59.9048 504.639 62.3814 504.904ZM56.5042 518.822C57.424 519.962 58.6563 520.614 60.2011 520.779C61.7705 520.947 63.1251 520.571 64.265 519.651C65.405 518.731 66.0588 517.487 66.2265 515.917C66.3366 514.887 66.2032 513.931 65.8265 513.047C65.4497 512.164 64.8693 511.445 64.0854 510.89C63.326 510.337 62.4314 510.006 61.4015 509.896C60.3716 509.786 59.415 509.919 58.5315 510.296C57.648 510.673 56.9287 511.253 56.3737 512.037C55.8432 512.824 55.523 513.732 55.4129 514.762C55.2452 516.331 55.609 517.684 56.5042 518.822ZM82.3433 528.242C80.3081 528.025 78.5175 527.374 76.9716 526.292C75.4256 525.209 74.272 523.821 73.5105 522.127C72.7762 520.412 72.5139 518.573 72.7236 516.612C73.0459 513.596 74.3308 511.203 76.5783 509.435C78.8258 507.666 81.4943 506.947 84.584 507.277C87.649 507.605 90.0931 508.87 91.916 511.074C93.7389 513.278 94.4892 515.887 94.1669 518.903C93.8472 521.895 92.55 524.286 90.2754 526.077C88.0279 527.845 85.3838 528.567 82.3433 528.242ZM82.8818 523.203C84.4266 523.368 85.7432 523.001 86.8314 522.1C87.9223 521.175 88.553 519.916 88.7233 518.322C88.8936 516.728 88.5421 515.376 87.6687 514.266C86.798 513.131 85.5779 512.48 84.0086 512.312C82.4638 512.147 81.146 512.527 80.0551 513.452C78.9668 514.352 78.3375 515.6 78.1671 517.193C78.0833 517.978 78.1273 518.727 78.2991 519.44C78.4954 520.155 78.8017 520.771 79.2178 521.286C79.6339 521.802 80.1463 522.229 80.755 522.567C81.3882 522.907 82.0972 523.119 82.8818 523.203ZM110.725 510.629L110.218 515.374L102.383 514.536L100.768 529.653L95.5081 529.091L97.6308 509.229L110.725 510.629ZM123.412 511.427C126.404 511.746 128.774 513.004 130.523 515.2C132.297 517.399 133.023 520.006 132.701 523.022C132.378 526.038 131.117 528.445 128.916 530.244C126.717 532.017 124.134 532.746 121.167 532.429C119.132 532.211 117.364 531.464 115.864 530.188L114.983 538.427L109.613 537.853L112.503 510.819L116.07 511.2L116.797 513.101C118.731 511.72 120.935 511.162 123.412 511.427ZM117.535 525.344C118.455 526.484 119.687 527.137 121.232 527.302C122.801 527.47 124.156 527.094 125.296 526.174C126.436 525.254 127.089 524.009 127.257 522.44C127.367 521.41 127.234 520.454 126.857 519.57C126.48 518.687 125.9 517.967 125.116 517.412C124.357 516.86 123.462 516.529 122.432 516.419C121.402 516.309 120.446 516.442 119.562 516.819C118.679 517.195 117.959 517.776 117.404 518.56C116.874 519.346 116.554 520.254 116.444 521.284C116.276 522.854 116.64 524.207 117.535 525.344ZM152.327 515.038L156.336 515.466L154.214 535.328L149.984 534.876L149.731 533.063C147.749 534.439 145.519 534.994 143.043 534.73C140.051 534.41 137.669 533.151 135.895 530.952C134.148 528.732 133.436 526.114 133.758 523.098C134.078 520.106 135.325 517.722 137.499 515.946C139.697 514.172 142.292 513.445 145.284 513.764C147.809 514.034 149.893 515.075 151.534 516.888L152.327 515.038ZM140.293 527.739C141.213 528.879 142.445 529.532 143.99 529.697C145.559 529.865 146.914 529.489 148.054 528.569C149.194 527.649 149.848 526.404 150.015 524.835C150.183 523.266 149.807 521.911 148.887 520.771C147.967 519.631 146.735 518.979 145.19 518.814C144.16 518.704 143.202 518.849 142.316 519.251C141.457 519.63 140.75 520.212 140.195 520.996C139.643 521.755 139.312 522.65 139.202 523.679C139.034 525.249 139.398 526.602 140.293 527.739ZM183.834 538.531L178.648 537.977L178.087 525.826L170.663 537.161L169.633 537.051L164.772 524.403L161.655 536.161L156.469 535.606L161.902 516.098L166.5 516.59L171.072 528.462L178.123 517.832L182.684 518.32L183.834 538.531ZM212.032 541.545L206.846 540.991L206.284 528.84L198.861 540.174L197.831 540.064L192.97 527.417L189.853 539.174L184.667 538.62L190.1 519.112L194.698 519.604L199.269 531.476L206.32 520.846L210.881 521.333L212.032 541.545ZM230.877 523.47L233.893 523.793L231.77 543.654L226.584 543.1L227.708 532.581L217.352 542.113L214.299 541.787L216.422 521.925L221.608 522.48L220.496 532.889L230.877 523.47ZM248.489 524.795C251.481 525.114 253.851 526.372 255.6 528.568C257.374 530.766 258.1 533.374 257.778 536.39C257.455 539.406 256.194 541.813 253.993 543.611C251.794 545.385 249.212 546.114 246.245 545.797C244.209 545.579 242.441 544.832 240.941 543.556L240.06 551.795L234.69 551.221L237.58 524.187L241.148 524.568L241.874 526.468C243.808 525.088 246.013 524.53 248.489 524.795ZM242.612 538.712C243.532 539.852 244.764 540.505 246.309 540.67C247.878 540.837 249.233 540.461 250.373 539.542C251.513 538.622 252.167 537.377 252.334 535.808C252.444 534.778 252.311 533.821 251.934 532.938C251.557 532.054 250.977 531.335 250.193 530.78C249.434 530.228 248.539 529.896 247.509 529.786C246.479 529.676 245.523 529.81 244.639 530.186C243.756 530.563 243.036 531.144 242.481 531.928C241.951 532.714 241.631 533.622 241.521 534.652C241.353 536.221 241.717 537.575 242.612 538.712ZM268.451 548.133C266.416 547.915 264.625 547.265 263.079 546.182C261.533 545.099 260.38 543.711 259.618 542.018C258.884 540.302 258.622 538.464 258.831 536.502C259.154 533.486 260.439 531.094 262.686 529.325C264.933 527.556 267.602 526.837 270.692 527.167C273.757 527.495 276.201 528.761 278.024 530.964C279.847 533.168 280.597 535.778 280.275 538.794C279.955 541.786 278.658 544.177 276.383 545.967C274.136 547.736 271.492 548.458 268.451 548.133ZM268.99 543.094C270.534 543.259 271.851 542.891 272.939 541.991C274.03 541.065 274.661 539.806 274.831 538.212C275.001 536.618 274.65 535.266 273.776 534.156C272.906 533.021 271.686 532.37 270.116 532.203C268.572 532.037 267.254 532.417 266.163 533.342C265.074 534.243 264.445 535.49 264.275 537.084C264.191 537.869 264.235 538.617 264.407 539.33C264.603 540.046 264.909 540.661 265.325 541.177C265.742 541.692 266.254 542.119 266.863 542.457C267.496 542.798 268.205 543.01 268.99 543.094ZM297.015 539.951C297.878 540.465 298.511 541.152 298.915 542.014C299.346 542.854 299.505 543.801 299.393 544.855C299.212 546.547 298.459 547.905 297.134 548.929C295.837 549.931 294.281 550.335 292.466 550.141L281.616 548.982L283.739 529.12L294.479 530.268C296.17 530.449 297.505 531.075 298.482 532.146C299.485 533.196 299.909 534.457 299.751 535.928C299.657 536.811 299.361 537.61 298.863 538.325C298.392 539.019 297.776 539.561 297.015 539.951ZM294.397 536.248C294.439 535.856 294.389 535.516 294.246 535.228C294.106 534.915 293.884 534.668 293.581 534.487C293.305 534.284 292.971 534.162 292.579 534.12L288.57 533.691L288.161 537.516L292.17 537.945C292.759 538.008 293.256 537.875 293.663 537.546C294.095 537.221 294.34 536.788 294.397 536.248ZM291.598 545.733C292.26 545.804 292.806 545.689 293.235 545.387C293.666 545.061 293.915 544.592 293.98 543.979C294.049 543.341 293.906 542.818 293.553 542.408C293.2 541.998 292.693 541.758 292.03 541.687L287.764 541.231L287.331 545.277L291.598 545.733ZM319.612 532.917L323.621 533.345L321.498 553.207L317.269 552.755L317.016 550.942C315.034 552.318 312.804 552.873 310.328 552.608C307.336 552.289 304.953 551.029 303.179 548.831C301.433 546.611 300.72 543.992 301.043 540.976C301.363 537.985 302.609 535.601 304.783 533.824C306.982 532.05 309.577 531.323 312.568 531.643C315.094 531.913 317.178 532.954 318.819 534.766L319.612 532.917ZM307.578 545.618C308.498 546.758 309.73 547.411 311.275 547.576C312.844 547.743 314.199 547.367 315.339 546.448C316.479 545.528 317.132 544.283 317.3 542.714C317.468 541.145 317.092 539.79 316.172 538.65C315.252 537.51 314.02 536.858 312.475 536.692C311.445 536.582 310.487 536.728 309.601 537.129C308.742 537.509 308.035 538.09 307.48 538.874C306.928 539.634 306.597 540.528 306.486 541.558C306.319 543.128 306.682 544.481 307.578 545.618ZM339.89 535.121L345.26 535.695L343.137 555.557L337.767 554.983L338.581 547.369L331.372 546.599L330.558 554.212L325.188 553.639L327.311 533.777L332.681 534.351L331.895 541.707L339.104 542.477L339.89 535.121ZM363.391 537.633L366.407 537.955L364.284 557.817L359.098 557.263L360.222 546.743L349.866 556.276L346.813 555.95L348.936 536.088L354.122 536.642L353.009 547.051L363.391 537.633ZM388.313 550.266C388.258 550.781 388.165 551.305 388.034 551.836L373.027 550.232C373.104 551.605 373.52 552.703 374.275 553.528C375.057 554.331 376.11 554.803 377.434 554.944C378.341 555.041 379.184 554.933 379.961 554.619C380.742 554.281 381.378 553.778 381.871 553.112L387.535 553.717C386.569 555.797 385.135 557.379 383.233 558.466C381.331 559.552 379.228 559.972 376.923 559.726C373.981 559.411 371.636 558.144 369.889 555.924C368.142 553.703 367.428 551.109 367.745 548.142C367.871 546.965 368.15 545.855 368.585 544.81C369.043 543.768 369.625 542.85 370.33 542.057C371.059 541.267 371.873 540.61 372.772 540.086C373.674 539.538 374.671 539.148 375.762 538.918C376.853 538.687 377.987 538.635 379.164 538.761C381.15 538.973 382.878 539.629 384.348 540.728C385.842 541.83 386.921 543.223 387.584 544.906C388.272 546.591 388.515 548.378 388.313 550.266ZM378.676 543.321C377.475 543.193 376.422 543.415 375.517 543.988C374.637 544.564 373.987 545.424 373.567 546.57L383.167 547.596C383.009 546.761 382.725 546.048 382.317 545.459C381.911 544.845 381.393 544.356 380.762 543.991C380.156 543.628 379.461 543.405 378.676 543.321Z" fill="#332E2D"/>
<g clip-path="url(#clip1_3_69)">
<rect x="269.164" y="390.276" width="467.979" height="117.692" rx="36.8413" transform="rotate(-7.00218 269.164 390.276)" fill="white"/>
<path d="M338.376 434.784C340.238 434.978 341.792 435.694 343.037 436.932C344.304 438.143 345.055 439.703 345.289 441.612C345.581 443.987 345.003 446.058 343.555 447.826C342.108 449.593 340.136 450.631 337.639 450.937C335.216 451.235 333.128 450.721 331.375 449.396C329.647 448.068 328.586 446.211 328.194 443.824L333.444 443.179C333.613 444.152 334.029 444.908 334.692 445.448C335.351 445.964 336.134 446.166 337.039 446.054C338.019 445.934 338.786 445.504 339.341 444.765C339.896 444.026 340.111 443.143 339.984 442.115C339.855 441.062 339.41 440.272 338.65 439.745C337.889 439.217 336.946 439.022 335.82 439.16L332.295 439.593L332.174 438.602L335.714 430.713L327.307 431.746L326.729 427.047L342.333 425.13L342.455 426.121L338.376 434.784ZM355.899 422.16C359.668 421.697 362.925 422.526 365.67 424.649C368.437 426.744 370.049 429.652 370.506 433.372C370.963 437.093 370.106 440.328 367.934 443.08C365.784 445.803 362.824 447.397 359.055 447.86L349.326 449.055L346.169 423.355L355.899 422.16ZM358.272 442.701C360.475 442.431 362.186 441.487 363.403 439.872C364.621 438.257 365.092 436.323 364.815 434.071C364.539 431.819 363.616 430.069 362.046 428.821C360.477 427.573 358.59 427.084 356.387 427.354L352.386 427.846L354.271 443.193L358.272 442.701ZM407.903 441.86L402.726 442.496L399.425 430.789L394.763 443.511L393.735 443.638L386.134 432.422L385.764 444.579L380.587 445.215L381.456 424.983L386.046 424.42L393.19 434.946L397.647 422.995L402.2 422.436L407.903 441.86ZM419.49 440.996C417.458 441.246 415.567 441.018 413.816 440.314C412.065 439.61 410.626 438.519 409.501 437.043C408.397 435.538 407.725 433.807 407.484 431.849C407.114 428.839 407.823 426.217 409.611 423.985C411.399 421.753 413.835 420.447 416.92 420.069C419.979 419.693 422.646 420.372 424.921 422.105C427.196 423.838 428.519 426.21 428.889 429.22C429.255 432.206 428.534 434.829 426.725 437.089C424.937 439.321 422.525 440.623 419.49 440.996ZM418.872 435.966C420.414 435.777 421.613 435.12 422.469 433.996C423.322 432.848 423.65 431.478 423.455 429.888C423.259 428.297 422.611 427.059 421.508 426.176C420.403 425.268 419.067 424.911 417.501 425.103C415.959 425.293 414.761 425.961 413.908 427.11C413.053 428.233 412.722 429.591 412.918 431.182C413.014 431.965 413.227 432.684 413.556 433.339C413.909 433.992 414.347 434.522 414.869 434.93C415.391 435.338 415.987 435.637 416.656 435.828C417.35 436.016 418.089 436.062 418.872 435.966ZM449.554 431.639L451.977 431.341L453.154 440.924L448.308 441.519L447.749 436.966L435.339 438.49L435.898 443.043L431.015 443.643L429.838 434.06L431.894 433.808C432.578 433.103 432.983 431.848 433.109 430.043C433.26 428.236 433.24 424.437 433.051 418.646L447.737 416.843L449.554 431.639ZM438.328 422.769C438.502 425.803 438.521 428.087 438.386 429.619C438.252 431.151 437.936 432.32 437.438 433.127L444.304 432.283L443.064 422.187L438.328 422.769ZM472.891 423.741C472.954 424.255 472.982 424.786 472.974 425.333L457.995 427.173C458.381 428.492 459.035 429.468 459.957 430.1C460.901 430.705 462.034 430.926 463.355 430.763C464.261 430.652 465.057 430.356 465.743 429.874C466.426 429.368 466.932 428.734 467.261 427.973L472.915 427.279C472.445 429.523 471.408 431.389 469.802 432.879C468.196 434.368 466.242 435.254 463.942 435.536C461.004 435.897 458.433 435.194 456.229 433.428C454.024 431.661 452.74 429.297 452.376 426.335C452.232 425.16 452.253 424.015 452.439 422.899C452.649 421.78 453.008 420.754 453.514 419.823C454.045 418.888 454.69 418.063 455.447 417.349C456.201 416.611 457.083 416.005 458.093 415.533C459.104 415.061 460.196 414.753 461.371 414.609C463.354 414.365 465.185 414.613 466.866 415.35C468.571 416.085 469.938 417.197 470.965 418.685C472.017 420.171 472.659 421.856 472.891 423.741ZM461.93 419.162C460.731 419.309 459.756 419.764 459.005 420.527C458.278 421.287 457.84 422.273 457.691 423.484L467.273 422.307C466.929 421.529 466.492 420.9 465.961 420.418C465.426 419.912 464.811 419.553 464.114 419.341C463.441 419.125 462.714 419.065 461.93 419.162ZM477.268 413.216L491.44 411.475L493.875 431.301L488.625 431.946L486.762 416.783L482.21 417.342L482.415 424.472C482.488 427.494 481.952 429.709 480.808 431.117C479.664 432.524 477.795 433.388 475.201 433.706L474.32 433.814L473.724 428.968L475.046 428.806C475.78 428.716 476.361 428.383 476.787 427.809C477.213 427.235 477.417 426.465 477.398 425.498L477.268 413.216ZM509.542 409.252L512.552 408.882L514.987 428.708L509.811 429.344L508.521 418.843L500.595 430.475L497.548 430.85L495.113 411.024L500.29 410.388L501.566 420.778L509.542 409.252ZM526.996 406.549C529.982 406.182 532.576 406.87 534.777 408.612C537.003 410.351 538.301 412.726 538.671 415.736C539.041 418.747 538.358 421.377 536.622 423.628C534.883 425.854 532.532 427.149 529.571 427.513C527.539 427.762 525.648 427.436 523.897 426.533L524.907 434.757L519.547 435.415L516.232 408.43L519.794 407.992L520.933 409.679C522.503 407.896 524.524 406.852 526.996 406.549ZM524.426 421.436C525.581 422.338 526.929 422.694 528.471 422.505C530.037 422.312 531.272 421.639 532.173 420.485C533.075 419.331 533.43 417.97 533.237 416.404C533.111 415.376 532.764 414.474 532.197 413.699C531.63 412.924 530.901 412.355 530.012 411.992C529.147 411.626 528.201 411.507 527.173 411.633C526.145 411.759 525.243 412.106 524.468 412.673C523.693 413.24 523.124 413.969 522.761 414.858C522.423 415.744 522.317 416.701 522.443 417.729C522.636 419.296 523.297 420.532 524.426 421.436ZM551.728 424.754C549.697 425.004 547.806 424.776 546.054 424.072C544.303 423.368 542.865 422.277 541.739 420.801C540.635 419.296 539.963 417.565 539.723 415.607C539.353 412.597 540.062 409.975 541.85 407.743C543.638 405.511 546.074 404.206 549.158 403.827C552.218 403.451 554.885 404.13 557.16 405.863C559.435 407.596 560.757 409.968 561.127 412.978C561.494 415.964 560.773 418.587 558.963 420.847C557.175 423.079 554.764 424.381 551.728 424.754ZM551.111 419.724C552.653 419.535 553.852 418.878 554.707 417.754C555.56 416.606 555.889 415.237 555.693 413.646C555.498 412.055 554.849 410.817 553.747 409.934C552.642 409.026 551.306 408.669 549.739 408.861C548.197 409.051 547 409.719 546.147 410.868C545.291 411.991 544.961 413.349 545.156 414.94C545.253 415.723 545.465 416.442 545.794 417.098C546.147 417.75 546.585 418.28 547.107 418.688C547.63 419.096 548.225 419.395 548.895 419.586C549.589 419.774 550.327 419.82 551.111 419.724ZM577.694 410.31C578.651 410.615 579.423 411.141 580.012 411.889C580.622 412.609 580.992 413.495 581.121 414.547C581.329 416.236 580.904 417.73 579.846 419.027C578.809 420.297 577.385 421.044 575.574 421.266L564.743 422.597L562.308 402.771L573.029 401.454C574.717 401.246 576.159 401.554 577.353 402.376C578.569 403.171 579.267 404.303 579.447 405.771C579.555 406.652 579.448 407.498 579.125 408.308C578.824 409.09 578.347 409.758 577.694 410.31ZM574.305 407.297C574.257 406.906 574.131 406.586 573.927 406.338C573.719 406.065 573.447 405.875 573.111 405.767C572.796 405.632 572.443 405.588 572.051 405.636L568.05 406.128L568.519 409.946L572.52 409.455C573.108 409.382 573.563 409.14 573.885 408.728C574.231 408.313 574.371 407.836 574.305 407.297ZM573.729 417.17C574.39 417.089 574.895 416.853 575.245 416.462C575.591 416.047 575.727 415.533 575.652 414.921C575.573 414.285 575.316 413.807 574.879 413.488C574.443 413.169 573.894 413.05 573.233 413.131L568.974 413.654L569.47 417.693L573.729 417.17ZM598.108 398.336L602.11 397.845L604.545 417.671L600.323 418.189L599.666 416.481C598.047 418.27 596.002 419.316 593.529 419.62C590.543 419.987 587.937 419.301 585.711 417.561C583.507 415.795 582.219 413.406 581.85 410.396C581.483 407.41 582.157 404.805 583.871 402.582C585.61 400.356 587.973 399.059 590.959 398.693C593.48 398.383 595.746 398.925 597.755 400.318L598.108 398.336ZM589.267 413.435C590.421 414.337 591.769 414.693 593.311 414.504C594.878 414.311 596.112 413.638 597.013 412.484C597.915 411.329 598.27 409.969 598.077 408.403C597.885 406.836 597.212 405.602 596.057 404.7C594.903 403.798 593.555 403.442 592.013 403.632C590.985 403.758 590.085 404.117 589.313 404.709C588.562 405.273 588.006 406 587.643 406.889C587.277 407.754 587.157 408.7 587.283 409.728C587.476 411.295 588.137 412.53 589.267 413.435ZM618.358 395.886L623.719 395.228L626.154 415.054L620.793 415.712L619.86 408.112L612.664 408.996L613.597 416.596L608.237 417.254L605.802 397.429L611.162 396.77L612.064 404.113L619.26 403.229L618.358 395.886ZM641.816 393.005L644.827 392.635L647.262 412.461L642.085 413.097L640.795 402.597L632.87 414.229L629.822 414.603L627.387 394.777L632.564 394.142L633.84 404.532L641.816 393.005ZM668.954 399.66C669.017 400.174 669.045 400.705 669.038 401.252L654.058 403.092C654.444 404.411 655.098 405.387 656.02 406.019C656.964 406.624 658.097 406.845 659.418 406.682C660.324 406.571 661.12 406.275 661.806 405.793C662.489 405.286 662.995 404.653 663.324 403.892L668.978 403.198C668.509 405.442 667.471 407.308 665.865 408.798C664.259 410.287 662.305 411.173 660.005 411.455C657.068 411.816 654.497 411.113 652.292 409.347C650.087 407.58 648.803 405.216 648.439 402.254C648.295 401.079 648.316 399.934 648.502 398.818C648.712 397.699 649.071 396.673 649.577 395.742C650.109 394.807 650.753 393.982 651.51 393.268C652.264 392.529 653.146 391.924 654.156 391.452C655.167 390.98 656.259 390.672 657.434 390.528C659.417 390.284 661.249 390.531 662.929 391.269C664.634 392.004 666.001 393.116 667.028 394.604C668.081 396.09 668.722 397.775 668.954 399.66ZM657.993 395.081C656.794 395.228 655.819 395.683 655.068 396.446C654.341 397.206 653.903 398.192 653.754 399.403L663.336 398.226C662.993 397.448 662.555 396.818 662.024 396.337C661.49 395.831 660.874 395.472 660.177 395.26C659.505 395.044 658.777 394.984 657.993 395.081Z" fill="#332E2D"/>
</g>
<path d="M221.397 59H230.337V73H228.037V61.14H223.457L222.797 68.28C222.491 71.44 220.984 73.02 218.277 73.02H217.617V70.76H218.277C219.584 70.76 220.311 69.96 220.457 68.36L221.397 59ZM241.783 62.2H243.503V73H241.703L241.483 71.68C240.443 72.7333 239.143 73.26 237.583 73.26C235.97 73.26 234.623 72.72 233.543 71.64C232.476 70.56 231.943 69.2133 231.943 67.6C231.943 65.9733 232.476 64.6267 233.543 63.56C234.623 62.48 235.97 61.94 237.583 61.94C239.17 61.94 240.483 62.4733 241.523 63.54L241.783 62.2ZM235.203 70.14C235.883 70.8067 236.73 71.14 237.743 71.14C238.77 71.14 239.61 70.8067 240.263 70.14C240.93 69.46 241.263 68.6133 241.263 67.6C241.263 66.5733 240.93 65.7267 240.263 65.06C239.61 64.3933 238.77 64.06 237.743 64.06C237.076 64.06 236.47 64.2133 235.923 64.52C235.39 64.8267 234.97 65.2533 234.663 65.8C234.356 66.3333 234.203 66.9333 234.203 67.6C234.203 68.6133 234.536 69.46 235.203 70.14ZM251.369 62.72C252.929 62.72 254.195 63.2 255.169 64.16C256.155 65.12 256.649 66.3667 256.649 67.9C256.649 69.4867 256.129 70.78 255.089 71.78C254.062 72.7667 252.715 73.26 251.049 73.26C249.289 73.26 247.902 72.7133 246.889 71.62C245.889 70.5133 245.389 69 245.389 67.08C245.389 64.4533 245.889 62.46 246.889 61.1C247.902 59.7267 249.589 58.7533 251.949 58.18L255.329 57.36V59.56L251.989 60.36C249.682 60.9067 248.315 62.1133 247.889 63.98C248.822 63.14 249.982 62.72 251.369 62.72ZM251.049 71.16C252.009 71.16 252.802 70.8533 253.429 70.24C254.069 69.6133 254.389 68.8333 254.389 67.9C254.389 67.2733 254.242 66.7133 253.949 66.22C253.655 65.7133 253.255 65.32 252.749 65.04C252.242 64.7467 251.675 64.6 251.049 64.6C250.422 64.6 249.849 64.7467 249.329 65.04C248.822 65.32 248.422 65.7133 248.129 66.22C247.849 66.7133 247.709 67.2733 247.709 67.9C247.709 68.8333 248.022 69.6133 248.649 70.24C249.289 70.8533 250.089 71.16 251.049 71.16ZM267.333 71.66C266.239 72.7267 264.866 73.26 263.213 73.26C261.559 73.26 260.179 72.7267 259.073 71.66C257.979 70.58 257.433 69.2267 257.433 67.6C257.433 66.5333 257.679 65.5667 258.173 64.7C258.679 63.8333 259.373 63.16 260.253 62.68C261.146 62.1867 262.133 61.94 263.213 61.94C264.293 61.94 265.273 62.1867 266.153 62.68C267.046 63.16 267.739 63.8333 268.233 64.7C268.739 65.5667 268.993 66.5333 268.993 67.6C268.993 69.2267 268.439 70.58 267.333 71.66ZM263.213 71.14C263.893 71.14 264.499 70.9933 265.033 70.7C265.566 70.3933 265.979 69.9733 266.273 69.44C266.579 68.8933 266.733 68.28 266.733 67.6C266.733 66.5733 266.399 65.7267 265.733 65.06C265.079 64.3933 264.239 64.06 263.213 64.06C262.186 64.06 261.339 64.3933 260.673 65.06C260.019 65.7267 259.693 66.5733 259.693 67.6C259.693 68.6267 260.019 69.4733 260.673 70.14C261.339 70.8067 262.186 71.14 263.213 71.14ZM276.358 61.94C277.424 61.94 278.384 62.1867 279.238 62.68C280.091 63.16 280.758 63.8333 281.238 64.7C281.718 65.5667 281.958 66.5333 281.958 67.6C281.958 69.2267 281.424 70.58 280.358 71.66C279.304 72.7267 277.971 73.26 276.358 73.26C274.971 73.26 273.778 72.8267 272.778 71.96V76.88H270.558V62.2H272.058L272.478 63.52C273.518 62.4667 274.811 61.94 276.358 61.94ZM273.658 70.14C274.324 70.8067 275.164 71.14 276.178 71.14C277.204 71.14 278.051 70.8067 278.718 70.14C279.384 69.46 279.718 68.6133 279.718 67.6C279.718 66.5867 279.384 65.7467 278.718 65.08C278.051 64.4 277.211 64.06 276.198 64.06C275.531 64.06 274.924 64.2133 274.378 64.52C273.831 64.8267 273.404 65.2533 273.098 65.8C272.804 66.3333 272.658 66.9333 272.658 67.6C272.658 68.6133 272.991 69.46 273.658 70.14ZM292.587 62.2H294.307V73H292.507L292.287 71.68C291.247 72.7333 289.947 73.26 288.387 73.26C286.773 73.26 285.427 72.72 284.347 71.64C283.28 70.56 282.747 69.2133 282.747 67.6C282.747 65.9733 283.28 64.6267 284.347 63.56C285.427 62.48 286.773 61.94 288.387 61.94C289.973 61.94 291.287 62.4733 292.327 63.54L292.587 62.2ZM286.007 70.14C286.687 70.8067 287.533 71.14 288.547 71.14C289.573 71.14 290.413 70.8067 291.067 70.14C291.733 69.46 292.067 68.6133 292.067 67.6C292.067 66.5733 291.733 65.7267 291.067 65.06C290.413 64.3933 289.573 64.06 288.547 64.06C287.88 64.06 287.273 64.2133 286.727 64.52C286.193 64.8267 285.773 65.2533 285.467 65.8C285.16 66.3333 285.007 66.9333 285.007 67.6C285.007 68.6133 285.34 69.46 286.007 70.14ZM305.213 62.2V64.2H301.413V73H299.253V64.2H295.433V62.2H305.213ZM315.148 71.66C314.055 72.7267 312.682 73.26 311.028 73.26C309.375 73.26 307.995 72.7267 306.888 71.66C305.795 70.58 305.248 69.2267 305.248 67.6C305.248 66.5333 305.495 65.5667 305.988 64.7C306.495 63.8333 307.188 63.16 308.068 62.68C308.962 62.1867 309.948 61.94 311.028 61.94C312.108 61.94 313.088 62.1867 313.968 62.68C314.862 63.16 315.555 63.8333 316.048 64.7C316.555 65.5667 316.808 66.5333 316.808 67.6C316.808 69.2267 316.255 70.58 315.148 71.66ZM311.028 71.14C311.708 71.14 312.315 70.9933 312.848 70.7C313.382 70.3933 313.795 69.9733 314.088 69.44C314.395 68.8933 314.548 68.28 314.548 67.6C314.548 66.5733 314.215 65.7267 313.548 65.06C312.895 64.3933 312.055 64.06 311.028 64.06C310.002 64.06 309.155 64.3933 308.488 65.06C307.835 65.7267 307.508 66.5733 307.508 67.6C307.508 68.6267 307.835 69.4733 308.488 70.14C309.155 70.8067 310.002 71.14 311.028 71.14ZM324.173 61.94C325.24 61.94 326.2 62.1867 327.053 62.68C327.907 63.16 328.573 63.8333 329.053 64.7C329.533 65.5667 329.773 66.5333 329.773 67.6C329.773 69.2267 329.24 70.58 328.173 71.66C327.12 72.7267 325.787 73.26 324.173 73.26C322.787 73.26 321.593 72.8267 320.593 71.96V76.88H318.373V62.2H319.873L320.293 63.52C321.333 62.4667 322.627 61.94 324.173 61.94ZM321.473 70.14C322.14 70.8067 322.98 71.14 323.993 71.14C325.02 71.14 325.867 70.8067 326.533 70.14C327.2 69.46 327.533 68.6133 327.533 67.6C327.533 66.5867 327.2 65.7467 326.533 65.08C325.867 64.4 325.027 64.06 324.013 64.06C323.347 64.06 322.74 64.2133 322.193 64.52C321.647 64.8267 321.22 65.2533 320.913 65.8C320.62 66.3333 320.473 66.9333 320.473 67.6C320.473 68.6133 320.807 69.46 321.473 70.14ZM339.282 62.2H340.522V73H338.402V66.14L332.642 73H331.362V62.2H333.502V69L339.282 62.2ZM345.907 62.2H351.067V73H348.907V69.04H346.647L344.287 73H341.867L344.447 68.68C343.793 68.4133 343.28 68.0133 342.907 67.48C342.533 66.9467 342.347 66.3267 342.347 65.62C342.347 64.6467 342.687 63.8333 343.367 63.18C344.047 62.5267 344.893 62.2 345.907 62.2ZM346.207 67.1H348.907V64.16H346.207C345.887 64.16 345.6 64.2267 345.347 64.36C345.107 64.48 344.92 64.6533 344.787 64.88C344.653 65.0933 344.587 65.3467 344.587 65.64C344.587 66.0667 344.733 66.42 345.027 66.7C345.32 66.9667 345.713 67.1 346.207 67.1ZM363.473 61.94C364.54 61.94 365.5 62.1867 366.353 62.68C367.207 63.16 367.873 63.8333 368.353 64.7C368.833 65.5667 369.073 66.5333 369.073 67.6C369.073 69.2267 368.54 70.58 367.473 71.66C366.42 72.7267 365.087 73.26 363.473 73.26C362.087 73.26 360.893 72.8267 359.893 71.96V76.88H357.673V62.2H359.173L359.593 63.52C360.633 62.4667 361.927 61.94 363.473 61.94ZM360.773 70.14C361.44 70.8067 362.28 71.14 363.293 71.14C364.32 71.14 365.167 70.8067 365.833 70.14C366.5 69.46 366.833 68.6133 366.833 67.6C366.833 66.5867 366.5 65.7467 365.833 65.08C365.167 64.4 364.327 64.06 363.313 64.06C362.647 64.06 362.04 64.2133 361.493 64.52C360.947 64.8267 360.52 65.2533 360.213 65.8C359.92 66.3333 359.773 66.9333 359.773 67.6C359.773 68.6133 360.107 69.46 360.773 70.14ZM379.762 71.66C378.669 72.7267 377.296 73.26 375.642 73.26C373.989 73.26 372.609 72.7267 371.502 71.66C370.409 70.58 369.862 69.2267 369.862 67.6C369.862 66.5333 370.109 65.5667 370.602 64.7C371.109 63.8333 371.802 63.16 372.682 62.68C373.576 62.1867 374.562 61.94 375.642 61.94C376.722 61.94 377.702 62.1867 378.582 62.68C379.476 63.16 380.169 63.8333 380.662 64.7C381.169 65.5667 381.422 66.5333 381.422 67.6C381.422 69.2267 380.869 70.58 379.762 71.66ZM375.642 71.14C376.322 71.14 376.929 70.9933 377.462 70.7C377.996 70.3933 378.409 69.9733 378.702 69.44C379.009 68.8933 379.162 68.28 379.162 67.6C379.162 66.5733 378.829 65.7267 378.162 65.06C377.509 64.3933 376.669 64.06 375.642 64.06C374.616 64.06 373.769 64.3933 373.102 65.06C372.449 65.7267 372.122 66.5733 372.122 67.6C372.122 68.6267 372.449 69.4733 373.102 70.14C373.769 70.8067 374.616 71.14 375.642 71.14ZM388.487 62.72C390.047 62.72 391.314 63.2 392.287 64.16C393.274 65.12 393.767 66.3667 393.767 67.9C393.767 69.4867 393.247 70.78 392.207 71.78C391.181 72.7667 389.834 73.26 388.167 73.26C386.407 73.26 385.021 72.7133 384.007 71.62C383.007 70.5133 382.507 69 382.507 67.08C382.507 64.4533 383.007 62.46 384.007 61.1C385.021 59.7267 386.707 58.7533 389.067 58.18L392.447 57.36V59.56L389.107 60.36C386.801 60.9067 385.434 62.1133 385.007 63.98C385.941 63.14 387.101 62.72 388.487 62.72ZM388.167 71.16C389.127 71.16 389.921 70.8533 390.547 70.24C391.187 69.6133 391.507 68.8333 391.507 67.9C391.507 67.2733 391.361 66.7133 391.067 66.22C390.774 65.7133 390.374 65.32 389.867 65.04C389.361 64.7467 388.794 64.6 388.167 64.6C387.541 64.6 386.967 64.7467 386.447 65.04C385.941 65.32 385.541 65.7133 385.247 66.22C384.967 66.7133 384.827 67.2733 384.827 67.9C384.827 68.8333 385.141 69.6133 385.767 70.24C386.407 70.8533 387.207 71.16 388.167 71.16ZM404.451 71.66C403.358 72.7267 401.985 73.26 400.331 73.26C398.678 73.26 397.298 72.7267 396.191 71.66C395.098 70.58 394.551 69.2267 394.551 67.6C394.551 66.5333 394.798 65.5667 395.291 64.7C395.798 63.8333 396.491 63.16 397.371 62.68C398.265 62.1867 399.251 61.94 400.331 61.94C401.411 61.94 402.391 62.1867 403.271 62.68C404.165 63.16 404.858 63.8333 405.351 64.7C405.858 65.5667 406.111 66.5333 406.111 67.6C406.111 69.2267 405.558 70.58 404.451 71.66ZM400.331 71.14C401.011 71.14 401.618 70.9933 402.151 70.7C402.685 70.3933 403.098 69.9733 403.391 69.44C403.698 68.8933 403.851 68.28 403.851 67.6C403.851 66.5733 403.518 65.7267 402.851 65.06C402.198 64.3933 401.358 64.06 400.331 64.06C399.305 64.06 398.458 64.3933 397.791 65.06C397.138 65.7267 396.811 66.5733 396.811 67.6C396.811 68.6267 397.138 69.4733 397.791 70.14C398.458 70.8067 399.305 71.14 400.331 71.14ZM415.904 62.2V64.2H412.104V73H409.944V64.2H406.124V62.2H415.904ZM425.84 71.66C424.746 72.7267 423.373 73.26 421.72 73.26C420.066 73.26 418.686 72.7267 417.58 71.66C416.486 70.58 415.94 69.2267 415.94 67.6C415.94 66.5333 416.186 65.5667 416.68 64.7C417.186 63.8333 417.88 63.16 418.76 62.68C419.653 62.1867 420.64 61.94 421.72 61.94C422.8 61.94 423.78 62.1867 424.66 62.68C425.553 63.16 426.246 63.8333 426.74 64.7C427.246 65.5667 427.5 66.5333 427.5 67.6C427.5 69.2267 426.946 70.58 425.84 71.66ZM421.72 71.14C422.4 71.14 423.006 70.9933 423.54 70.7C424.073 70.3933 424.486 69.9733 424.78 69.44C425.086 68.8933 425.24 68.28 425.24 67.6C425.24 66.5733 424.906 65.7267 424.24 65.06C423.586 64.3933 422.746 64.06 421.72 64.06C420.693 64.06 419.846 64.3933 419.18 65.06C418.526 65.7267 418.2 66.5733 418.2 67.6C418.2 68.6267 418.526 69.4733 419.18 70.14C419.846 70.8067 420.693 71.14 421.72 71.14ZM437.292 62.2V64.2H433.492V73H431.332V64.2H427.512V62.2H437.292ZM448.388 67.62C448.388 67.82 448.375 68.0667 448.348 68.36H439.588C439.721 69.2267 440.081 69.9133 440.668 70.42C441.268 70.9267 442.008 71.18 442.888 71.18C443.315 71.18 443.715 71.12 444.088 71C444.461 70.8667 444.788 70.6867 445.068 70.46C445.361 70.22 445.601 69.9333 445.788 69.6H448.128C447.701 70.7467 447.021 71.6467 446.088 72.3C445.155 72.94 444.088 73.26 442.888 73.26C441.301 73.26 439.975 72.72 438.908 71.64C437.855 70.56 437.328 69.2133 437.328 67.6C437.328 65.9867 437.855 64.64 438.908 63.56C439.975 62.48 441.301 61.94 442.888 61.94C443.968 61.94 444.928 62.2 445.768 62.72C446.608 63.2267 447.255 63.9133 447.708 64.78C448.161 65.6333 448.388 66.58 448.388 67.62ZM442.888 63.94C442.061 63.94 441.355 64.1733 440.768 64.64C440.195 65.1067 439.815 65.7467 439.628 66.56H446.168C446.035 66.0133 445.815 65.5467 445.508 65.16C445.201 64.76 444.821 64.46 444.368 64.26C443.928 64.0467 443.435 63.94 442.888 63.94ZM458.454 73H455.954L453.254 68.88L450.534 73H448.094L451.934 67.42L448.394 62.2H450.874L453.274 65.84L455.734 62.2H458.174L454.574 67.3L458.454 73ZM466.521 62.2H468.701V73H466.521V68.48H461.521V73H459.321V62.2H461.521V66.44H466.521V62.2ZM478.98 62.2H480.22V73H478.1V66.14L472.34 73H471.06V62.2H473.2V69L478.98 62.2ZM489.384 73L486.144 68.4H484.804V73H482.584V62.2H484.804V66.38H486.164L489.104 62.2H491.724L488.064 67.38L492.124 73H489.384ZM500.778 62.2L502.018 62.2V73H499.898V66.14L494.138 73H492.858V62.2H494.998V69L500.778 62.2ZM268.575 84.2H269.815V95H267.695V88.14L261.935 95H260.655V84.2H262.795V91L268.575 84.2ZM281.279 86.68C282.319 86.8667 283.152 87.34 283.779 88.1C284.419 88.86 284.739 89.7667 284.739 90.82C284.739 92.1 284.299 93.16 283.419 94C282.552 94.8267 281.465 95.24 280.159 95.24C278.892 95.24 277.839 94.8467 276.999 94.06C276.172 93.26 275.732 92.2333 275.679 90.98H277.839C277.879 91.6467 278.112 92.1867 278.539 92.6C278.965 93 279.505 93.2 280.159 93.2C280.852 93.2 281.425 92.9733 281.879 92.52C282.332 92.0533 282.559 91.4667 282.559 90.76C282.559 90.4133 282.492 90.0933 282.359 89.8C282.225 89.4933 282.045 89.2333 281.819 89.02C281.592 88.8067 281.319 88.6467 280.999 88.54C280.679 88.42 280.332 88.36 279.959 88.36H278.279V87.94L281.039 83.66H276.079V81.7H284.219V82.14L281.279 86.68ZM291.599 81C293.652 81 295.345 81.66 296.679 82.98C298.025 84.3 298.699 85.9733 298.699 88C298.699 90.0267 298.025 91.7 296.679 93.02C295.345 94.34 293.652 95 291.599 95H286.659V81H291.599ZM291.539 92.86C292.939 92.86 294.085 92.4067 294.979 91.5C295.885 90.58 296.339 89.4133 296.339 88C296.339 87.2933 296.219 86.64 295.979 86.04C295.752 85.44 295.425 84.9267 294.999 84.5C294.585 84.0733 294.079 83.74 293.479 83.5C292.879 83.26 292.232 83.14 291.539 83.14H288.959V92.86H291.539ZM318.324 95H316.184L314.884 87.64L311.264 94.88H310.804L307.204 87.64L305.904 95H303.764L305.704 84.2H307.584L311.044 91.1L314.524 84.2H316.384L318.324 95ZM328.842 93.66C327.749 94.7267 326.375 95.26 324.722 95.26C323.069 95.26 321.689 94.7267 320.582 93.66C319.489 92.58 318.942 91.2267 318.942 89.6C318.942 88.5333 319.189 87.5667 319.682 86.7C320.189 85.8333 320.882 85.16 321.762 84.68C322.655 84.1867 323.642 83.94 324.722 83.94C325.802 83.94 326.782 84.1867 327.662 84.68C328.555 85.16 329.249 85.8333 329.742 86.7C330.249 87.5667 330.502 88.5333 330.502 89.6C330.502 91.2267 329.949 92.58 328.842 93.66ZM324.722 93.14C325.402 93.14 326.009 92.9933 326.542 92.7C327.075 92.3933 327.489 91.9733 327.782 91.44C328.089 90.8933 328.242 90.28 328.242 89.6C328.242 88.5733 327.909 87.7267 327.242 87.06C326.589 86.3933 325.749 86.06 324.722 86.06C323.695 86.06 322.849 86.3933 322.182 87.06C321.529 87.7267 321.202 88.5733 321.202 89.6C321.202 90.6267 321.529 91.4733 322.182 92.14C322.849 92.8067 323.695 93.14 324.722 93.14ZM341.232 92.9H342.632V97.72H340.612V95H332.732V97.72H330.712V92.9H331.852C332.159 92.6467 332.392 92.26 332.552 91.74C332.726 91.22 332.879 90.4333 333.012 89.38C333.146 88.3133 333.319 86.5867 333.532 84.2H341.232V92.9ZM335.492 86.16C335.346 88.3333 335.179 89.8933 334.992 90.84C334.806 91.7867 334.532 92.4733 334.172 92.9H339.052V86.16H335.492ZM354.281 89.62C354.281 89.82 354.268 90.0667 354.241 90.36H345.481C345.614 91.2267 345.974 91.9133 346.561 92.42C347.161 92.9267 347.901 93.18 348.781 93.18C349.208 93.18 349.608 93.12 349.981 93C350.354 92.8667 350.681 92.6867 350.961 92.46C351.254 92.22 351.494 91.9333 351.681 91.6H354.021C353.594 92.7467 352.914 93.6467 351.981 94.3C351.048 94.94 349.981 95.26 348.781 95.26C347.194 95.26 345.868 94.72 344.801 93.64C343.748 92.56 343.221 91.2133 343.221 89.6C343.221 87.9867 343.748 86.64 344.801 85.56C345.868 84.48 347.194 83.94 348.781 83.94C349.861 83.94 350.821 84.2 351.661 84.72C352.501 85.2267 353.148 85.9133 353.601 86.78C354.054 87.6333 354.281 88.58 354.281 89.62ZM348.781 85.94C347.954 85.94 347.248 86.1733 346.661 86.64C346.088 87.1067 345.708 87.7467 345.521 88.56H352.061C351.928 88.0133 351.708 87.5467 351.401 87.16C351.094 86.76 350.714 86.46 350.261 86.26C349.821 86.0467 349.328 85.94 348.781 85.94ZM357.523 84.2H364.863V95H362.683V86.12H359.343L358.863 90.9C358.717 92.42 358.323 93.4933 357.683 94.12C357.057 94.7467 356.103 95.06 354.823 95.06H354.443V93.02H354.963C356.017 93.02 356.61 92.36 356.743 91.04L357.523 84.2ZM375.146 84.2H376.386V95H374.266V88.14L368.506 95H367.226V84.2H369.366V91L375.146 84.2ZM384.55 83.94C385.617 83.94 386.577 84.1867 387.43 84.68C388.283 85.16 388.95 85.8333 389.43 86.7C389.91 87.5667 390.15 88.5333 390.15 89.6C390.15 91.2267 389.617 92.58 388.55 93.66C387.497 94.7267 386.163 95.26 384.55 95.26C383.163 95.26 381.97 94.8267 380.97 93.96V98.88H378.75V84.2H380.25L380.67 85.52C381.71 84.4667 383.003 83.94 384.55 83.94ZM381.85 92.14C382.517 92.8067 383.357 93.14 384.37 93.14C385.397 93.14 386.243 92.8067 386.91 92.14C387.577 91.46 387.91 90.6133 387.91 89.6C387.91 88.5867 387.577 87.7467 386.91 87.08C386.243 86.4 385.403 86.06 384.39 86.06C383.723 86.06 383.117 86.2133 382.57 86.52C382.023 86.8267 381.597 87.2533 381.29 87.8C380.997 88.3333 380.85 88.9333 380.85 89.6C380.85 90.6133 381.183 91.46 381.85 92.14ZM400.839 93.66C399.746 94.7267 398.372 95.26 396.719 95.26C395.066 95.26 393.686 94.7267 392.579 93.66C391.486 92.58 390.939 91.2267 390.939 89.6C390.939 88.5333 391.186 87.5667 391.679 86.7C392.186 85.8333 392.879 85.16 393.759 84.68C394.652 84.1867 395.639 83.94 396.719 83.94C397.799 83.94 398.779 84.1867 399.659 84.68C400.552 85.16 401.246 85.8333 401.739 86.7C402.246 87.5667 402.499 88.5333 402.499 89.6C402.499 91.2267 401.946 92.58 400.839 93.66ZM396.719 93.14C397.399 93.14 398.006 92.9933 398.539 92.7C399.072 92.3933 399.486 91.9733 399.779 91.44C400.086 90.8933 400.239 90.28 400.239 89.6C400.239 88.5733 399.906 87.7267 399.239 87.06C398.586 86.3933 397.746 86.06 396.719 86.06C395.692 86.06 394.846 86.3933 394.179 87.06C393.526 87.7267 393.199 88.5733 393.199 89.6C393.199 90.6267 393.526 91.4733 394.179 92.14C394.846 92.8067 395.692 93.14 396.719 93.14ZM411.384 89.36C411.637 89.4667 411.864 89.6067 412.064 89.78C412.277 89.94 412.457 90.1333 412.604 90.36C412.751 90.5733 412.864 90.8133 412.944 91.08C413.024 91.3467 413.064 91.62 413.064 91.9C413.064 92.78 412.744 93.52 412.104 94.12C411.464 94.7067 410.664 95 409.704 95H404.064V84.2H409.624C410.531 84.2 411.271 84.46 411.844 84.98C412.431 85.4867 412.724 86.1467 412.724 86.96C412.724 87.4667 412.604 87.9333 412.364 88.36C412.124 88.7867 411.797 89.12 411.384 89.36ZM410.524 87.32C410.524 86.9467 410.397 86.6467 410.144 86.42C409.904 86.1933 409.584 86.08 409.184 86.08H406.244V88.56H409.184C409.584 88.56 409.904 88.4467 410.144 88.22C410.397 87.9933 410.524 87.6933 410.524 87.32ZM409.304 93.06C409.744 93.06 410.097 92.9333 410.364 92.68C410.644 92.4267 410.784 92.1067 410.784 91.72C410.784 91.32 410.644 90.9933 410.364 90.74C410.084 90.4867 409.724 90.36 409.284 90.36H406.244V93.06H409.304ZM423.808 84.2H425.528V95H423.728L423.508 93.68C422.468 94.7333 421.168 95.26 419.608 95.26C417.995 95.26 416.648 94.72 415.568 93.64C414.501 92.56 413.968 91.2133 413.968 89.6C413.968 87.9733 414.501 86.6267 415.568 85.56C416.648 84.48 417.995 83.94 419.608 83.94C421.195 83.94 422.508 84.4733 423.548 85.54L423.808 84.2ZM417.228 92.14C417.908 92.8067 418.755 93.14 419.768 93.14C420.795 93.14 421.635 92.8067 422.288 92.14C422.955 91.46 423.288 90.6133 423.288 89.6C423.288 88.5733 422.955 87.7267 422.288 87.06C421.635 86.3933 420.795 86.06 419.768 86.06C419.101 86.06 418.495 86.2133 417.948 86.52C417.415 86.8267 416.995 87.2533 416.688 87.8C416.381 88.3333 416.228 88.9333 416.228 89.6C416.228 90.6133 416.561 91.46 417.228 92.14ZM435.094 84.2H437.274V95H435.094V90.48H430.094V95H427.894V84.2H430.094V88.44H435.094V84.2ZM447.553 84.2H448.793V95H446.673V88.14L440.913 95H439.633V84.2H441.773V91L447.553 84.2ZM454.177 84.2H459.337V95H457.177V91.04H454.917L452.557 95H450.137L452.717 90.68C452.064 90.4133 451.55 90.0133 451.177 89.48C450.804 88.9467 450.617 88.3267 450.617 87.62C450.617 86.6467 450.957 85.8333 451.637 85.18C452.317 84.5267 453.164 84.2 454.177 84.2ZM454.477 89.1H457.177V86.16H454.477C454.157 86.16 453.87 86.2267 453.617 86.36C453.377 86.48 453.19 86.6533 453.057 86.88C452.924 87.0933 452.857 87.3467 452.857 87.64C452.857 88.0667 453.004 88.42 453.297 88.7C453.59 88.9667 453.984 89.1 454.477 89.1Z" fill="#CDC1FF"/>
<g clip-path="url(#clip2_3_69)">
<rect x="280.269" y="580.596" width="381.726" height="117.692" rx="36.8413" transform="rotate(16.3173 280.269 580.596)" fill="white"/>
<path d="M332.588 640.44C335.097 641.174 336.952 642.604 338.155 644.729C339.364 646.83 339.608 649.112 338.888 651.573C338.174 654.011 336.738 655.8 334.58 656.941C332.428 658.059 330.098 658.25 327.589 657.516L323.436 656.3L321.16 664.074L315.764 662.495L323.039 637.644L332.588 640.44ZM328.831 652.483C329.896 652.795 330.845 652.713 331.678 652.238C332.535 651.769 333.116 651.014 333.421 649.973C333.725 648.931 333.644 647.982 333.175 647.125C332.737 646.252 331.985 645.659 330.92 645.348L326.98 644.194L324.891 651.33L328.831 652.483ZM344.832 671.583C342.868 671.008 341.221 670.05 339.892 668.71C338.562 667.37 337.673 665.8 337.224 663.998C336.806 662.18 336.874 660.324 337.428 658.43C338.28 655.519 339.969 653.393 342.495 652.051C345.02 650.709 347.774 650.474 350.756 651.347C353.714 652.213 355.895 653.892 357.298 656.385C358.701 658.877 358.977 661.578 358.125 664.489C357.279 667.377 355.579 669.5 353.023 670.858C350.497 672.2 347.767 672.442 344.832 671.583ZM346.256 666.719C347.747 667.156 349.108 667.027 350.339 666.334C351.576 665.617 352.42 664.489 352.871 662.951C353.321 661.413 353.215 660.02 352.552 658.772C351.897 657.501 350.811 656.644 349.297 656.2C347.806 655.764 346.441 655.904 345.204 656.621C343.973 657.314 343.132 658.43 342.682 659.968C342.46 660.726 342.371 661.47 342.413 662.202C342.48 662.941 342.672 663.601 342.99 664.183C343.308 664.764 343.737 665.275 344.276 665.715C344.839 666.163 345.499 666.497 346.256 666.719ZM373.281 659.367C376.097 660.192 378.108 661.706 379.313 663.908C380.518 666.111 380.715 668.597 379.905 671.366C379.053 674.277 377.444 676.35 375.078 677.585C372.719 678.796 370.013 678.954 366.96 678.061C363.671 677.098 361.421 675.347 360.211 672.809C359.008 670.247 358.947 667.12 360.028 663.428C361.268 659.191 363.156 656.121 365.692 654.217C368.259 652.296 371.625 651.418 375.79 651.584L382.638 651.893L381.152 656.969L374.34 656.671C370.963 656.531 368.666 657.49 367.446 659.548C369.372 658.853 371.316 658.792 373.281 659.367ZM365.254 670.855C365.907 672.048 366.932 672.849 368.328 673.258C369.748 673.673 371.055 673.555 372.248 672.902C373.441 672.249 374.245 671.213 374.661 669.793C375.077 668.373 374.958 667.066 374.306 665.873C373.66 664.656 372.639 663.843 371.242 663.434C370.295 663.157 369.381 663.121 368.499 663.325C367.641 663.536 366.888 663.958 366.24 664.591C365.623 665.207 365.176 665.988 364.899 666.935C364.483 668.355 364.601 669.661 365.254 670.855ZM388.552 684.381C386.588 683.806 384.941 682.849 383.611 681.509C382.282 680.169 381.393 678.598 380.944 676.797C380.525 674.978 380.593 673.122 381.148 671.229C382 668.318 383.689 666.192 386.214 664.85C388.74 663.508 391.494 663.273 394.476 664.146C397.434 665.012 399.615 666.691 401.018 669.183C402.421 671.675 402.697 674.377 401.845 677.288C400.999 680.175 399.299 682.298 396.742 683.657C394.217 684.999 391.487 685.241 388.552 684.381ZM389.976 679.518C391.467 679.954 392.828 679.826 394.058 679.133C395.296 678.416 396.14 677.288 396.59 675.75C397.041 674.212 396.935 672.819 396.272 671.571C395.616 670.3 394.531 669.443 393.016 668.999C391.525 668.563 390.161 668.703 388.923 669.42C387.693 670.113 386.852 671.229 386.402 672.767C386.18 673.525 386.091 674.269 386.133 675.001C386.2 675.74 386.392 676.4 386.71 676.982C387.028 677.563 387.456 678.074 387.996 678.514C388.558 678.962 389.218 679.296 389.976 679.518ZM422.28 672.864L420.919 677.515L414.671 675.685L410.42 690.205L405.343 688.719L409.594 674.199L403.346 672.37L404.707 667.72L422.28 672.864ZM426.933 695.617C424.968 695.042 423.322 694.085 421.992 692.745C420.663 691.405 419.774 689.834 419.325 688.033C418.906 686.214 418.974 684.358 419.528 682.465C420.381 679.554 422.07 677.427 424.595 676.085C427.121 674.744 429.875 674.509 432.857 675.382C435.815 676.248 437.996 677.927 439.399 680.419C440.802 682.911 441.078 685.613 440.225 688.524C439.38 691.411 437.679 693.534 435.123 694.893C432.598 696.235 429.867 696.476 426.933 695.617ZM428.357 690.754C429.848 691.19 431.208 691.062 432.439 690.369C433.677 689.652 434.521 688.524 434.971 686.986C435.422 685.447 435.315 684.055 434.653 682.807C433.997 681.536 432.912 680.679 431.397 680.235C429.906 679.799 428.542 679.939 427.304 680.656C426.073 681.349 425.233 682.465 424.783 684.003C424.561 684.76 424.471 685.505 424.514 686.237C424.58 686.976 424.773 687.636 425.091 688.217C425.409 688.799 425.837 689.31 426.376 689.75C426.939 690.197 427.599 690.532 428.357 690.754ZM460.661 684.1L459.3 688.75L453.051 686.921L448.801 701.441L443.724 699.955L447.975 685.435L441.727 683.606L443.088 678.955L460.661 684.1ZM477.775 699.439C477.629 699.936 477.445 700.435 477.222 700.935L462.737 696.695C462.569 698.059 462.784 699.213 463.38 700.159C464.008 701.088 464.961 701.739 466.239 702.113C467.114 702.37 467.963 702.413 468.783 702.242C469.611 702.047 470.327 701.666 470.93 701.097L476.397 702.698C475.077 704.572 473.385 705.876 471.321 706.608C469.257 707.339 467.112 707.38 464.888 706.728C462.048 705.897 459.965 704.234 458.64 701.739C457.314 699.244 457.071 696.565 457.909 693.701C458.242 692.565 458.714 691.521 459.327 690.57C459.963 689.626 460.698 688.826 461.532 688.171C462.39 687.523 463.308 687.02 464.286 686.664C465.271 686.284 466.321 686.078 467.435 686.044C468.55 686.011 469.675 686.161 470.811 686.493C472.728 687.054 474.313 688.006 475.564 689.349C476.839 690.699 477.654 692.261 478.008 694.035C478.386 695.815 478.308 697.617 477.775 699.439ZM469.523 690.895C468.363 690.556 467.287 690.588 466.296 690.991C465.327 691.402 464.535 692.133 463.919 693.186L473.184 695.899C473.176 695.048 473.024 694.297 472.726 693.645C472.436 692.969 472.013 692.395 471.457 691.924C470.925 691.46 470.28 691.117 469.523 690.895ZM493.248 714.453L487.39 712.738L485.452 705.271L479.686 710.483L473.971 708.809L483.382 700.888L480.009 689.764L485.866 691.479L487.582 697.994L492.753 693.495L498.469 695.168L489.606 702.402L493.248 714.453ZM512.098 699.158L517.282 700.675L511.67 719.846L506.486 718.328L508.638 710.98L501.68 708.943L499.528 716.291L494.345 714.774L499.957 695.604L505.14 697.121L503.062 704.221L510.02 706.258L512.098 699.158ZM534.781 705.798L537.692 706.65L532.08 725.821L527.074 724.355L530.047 714.202L518.164 721.747L515.217 720.884L520.829 701.714L525.835 703.179L522.894 713.226L534.781 705.798ZM553.246 732.017L546.998 730.188L543.503 719.221L540.821 728.38L535.638 726.862L541.25 707.692L546.433 709.209L543.939 717.73L552.255 710.914L558.149 712.639L548.971 719.896L553.246 732.017ZM574.564 717.406L578.434 718.539L572.822 737.709L568.739 736.514L568.812 734.685C566.617 735.687 564.324 735.838 561.934 735.139C559.047 734.293 556.925 732.632 555.569 730.153C554.244 727.658 554.008 724.955 554.86 722.044C555.705 719.157 557.355 717.032 559.81 715.669C562.288 714.313 564.971 714.058 567.858 714.903C570.296 715.617 572.162 717.011 573.456 719.086L574.564 717.406ZM560.468 727.772C561.171 729.057 562.268 729.917 563.759 730.354C565.273 730.797 566.673 730.667 567.958 729.964C569.243 729.261 570.108 728.153 570.551 726.638C570.994 725.123 570.865 723.723 570.162 722.438C569.459 721.153 568.362 720.293 566.871 719.856C565.877 719.565 564.908 719.538 563.965 719.776C563.052 719.997 562.253 720.444 561.568 721.117C560.889 721.767 560.405 722.588 560.114 723.582C559.67 725.097 559.788 726.494 560.468 727.772Z" fill="#332E2D"/>
</g>
<rect x="60.9977" y="754.84" width="351.725" height="117.692" rx="36.8413" transform="rotate(-8.58587 60.9977 754.84)" fill="#B7F900"/>
<path d="M135.803 785.555C139.583 784.984 142.922 785.789 145.82 787.97C148.739 790.124 150.485 793.102 151.059 796.906C151.634 800.71 150.858 804.081 148.733 807.021C146.605 809.936 143.639 811.681 139.835 812.255C136.64 812.737 133.74 812.19 131.132 810.614C128.549 809.033 126.724 806.69 125.657 803.584L131.216 802.745C131.975 804.301 133.048 805.461 134.435 806.224C135.846 806.984 137.381 807.239 139.039 806.988C140.819 806.72 142.29 805.974 143.453 804.751C144.639 803.524 145.335 802.022 145.541 800.246L135.738 801.726L134.993 796.788L144.795 795.308C144.078 793.695 142.971 792.478 141.476 791.657C140.004 790.831 138.379 790.553 136.599 790.822C134.989 791.065 133.641 791.717 132.555 792.779C131.468 793.841 130.748 795.184 130.395 796.809L124.872 797.643C125.104 794.39 126.204 791.68 128.171 789.513C130.138 787.345 132.682 786.026 135.803 785.555ZM155.06 789.194L169.179 787.062L172.161 806.813L166.93 807.603L164.65 792.497L160.114 793.182L160.516 800.304C160.673 803.323 160.199 805.552 159.094 806.991C157.989 808.429 156.145 809.344 153.56 809.734L152.682 809.867L151.953 805.038L153.27 804.84C154.002 804.729 154.572 804.381 154.983 803.795C155.393 803.21 155.575 802.434 155.529 801.468L155.06 789.194ZM193.484 793.418C193.561 793.931 193.604 794.46 193.611 795.008L178.688 797.261C179.11 798.569 179.791 799.526 180.731 800.132C181.691 800.711 182.829 800.9 184.146 800.702C185.048 800.565 185.836 800.247 186.508 799.746C187.177 799.221 187.666 798.574 187.973 797.804L193.606 796.954C193.198 799.21 192.213 801.105 190.648 802.638C189.084 804.171 187.156 805.11 184.864 805.457C181.938 805.898 179.348 805.267 177.096 803.562C174.843 801.857 173.494 799.529 173.049 796.579C172.872 795.408 172.861 794.263 173.016 793.142C173.196 792.017 173.526 790.982 174.006 790.037C174.512 789.088 175.133 788.246 175.87 787.511C176.603 786.752 177.468 786.123 178.465 785.623C179.462 785.123 180.546 784.785 181.716 784.608C183.691 784.31 185.529 784.506 187.23 785.197C188.954 785.885 190.351 786.958 191.419 788.418C192.512 789.874 193.2 791.541 193.484 793.418ZM182.401 789.144C181.206 789.324 180.244 789.806 179.514 790.59C178.809 791.369 178.398 792.367 178.282 793.581L187.829 792.14C187.463 791.372 187.009 790.755 186.464 790.288C185.916 789.798 185.291 789.455 184.589 789.262C183.91 789.065 183.181 789.026 182.401 789.144ZM215.466 800.275L209.028 801.247L201.239 792.771L202.664 802.208L197.324 803.014L194.342 783.263L199.682 782.457L201.007 791.235L205.681 781.551L211.752 780.634L206.483 791.082L215.466 800.275ZM229.549 777.947L230.272 782.739L223.835 783.711L226.094 798.67L220.863 799.46L218.605 784.5L212.167 785.472L211.444 780.681L229.549 777.947ZM242.021 775.503C244.996 775.054 247.607 775.67 249.856 777.35C252.13 779.027 253.493 781.365 253.946 784.365C254.398 787.364 253.788 790.012 252.115 792.31C250.438 794.583 248.124 795.943 245.174 796.388C243.15 796.694 241.251 796.419 239.476 795.565L240.713 803.758L235.373 804.564L231.314 777.681L234.862 777.145L236.047 778.799C237.567 776.974 239.558 775.875 242.021 775.503ZM239.864 790.456C241.043 791.326 242.4 791.644 243.936 791.412C245.497 791.177 246.712 790.47 247.582 789.291C248.451 788.112 248.768 786.742 248.532 785.182C248.378 784.158 248.006 783.266 247.418 782.507C246.829 781.748 246.086 781.199 245.187 780.861C244.312 780.519 243.363 780.426 242.338 780.58C241.314 780.735 240.423 781.107 239.664 781.695C238.904 782.284 238.356 783.027 238.018 783.926C237.704 784.822 237.624 785.781 237.779 786.805C238.015 788.366 238.71 789.583 239.864 790.456ZM267.247 793.018C265.223 793.324 263.326 793.149 261.557 792.493C259.787 791.837 258.319 790.787 257.153 789.342C256.008 787.869 255.288 786.157 254.993 784.206C254.54 781.207 255.177 778.567 256.902 776.287C258.628 774.006 261.027 772.634 264.099 772.17C267.147 771.71 269.833 772.314 272.155 773.984C274.477 775.653 275.864 777.988 276.317 780.987C276.766 783.962 276.118 786.603 274.371 788.912C272.645 791.193 270.271 792.561 267.247 793.018ZM266.491 788.007C268.027 787.775 269.207 787.086 270.032 785.939C270.852 784.767 271.143 783.389 270.904 781.804C270.664 780.219 269.982 779 268.855 778.148C267.725 777.271 266.38 776.951 264.819 777.186C263.283 777.418 262.105 778.12 261.284 779.291C260.46 780.438 260.167 781.804 260.406 783.389C260.524 784.169 260.757 784.882 261.104 785.528C261.475 786.171 261.927 786.688 262.46 787.082C262.994 787.475 263.597 787.758 264.272 787.931C264.971 788.099 265.71 788.125 266.491 788.007ZM289.724 768.862L295.064 768.056L298.046 787.807L292.706 788.613L291.563 781.042L284.394 782.124L285.537 789.695L280.197 790.502L277.215 770.751L282.555 769.944L283.66 777.26L290.829 776.177L289.724 768.862ZM313.094 765.334L316.093 764.881L319.075 784.632L313.918 785.41L312.338 774.95L304.737 786.797L301.701 787.255L298.719 767.504L303.876 766.725L305.439 777.076L313.094 765.334ZM340.883 781.339L334.445 782.311L326.656 773.835L328.081 783.272L322.741 784.078L319.759 764.327L325.099 763.521L326.424 772.299L331.097 762.615L337.169 761.699L331.9 772.146L340.883 781.339ZM354.066 759.11L358.052 758.508L361.035 778.259L356.828 778.894L356.124 777.205C354.555 779.038 352.54 780.14 350.077 780.512C347.102 780.961 344.478 780.347 342.205 778.67C339.952 776.966 338.599 774.613 338.147 771.614C337.697 768.639 338.299 766.017 339.952 763.747C341.628 761.474 343.954 760.113 346.929 759.664C349.441 759.285 351.72 759.763 353.768 761.1L354.066 759.11ZM345.645 774.448C346.824 775.317 348.181 775.636 349.717 775.404C351.278 775.168 352.493 774.461 353.362 773.282C354.232 772.104 354.549 770.734 354.313 769.173C354.077 767.613 353.37 766.398 352.192 765.528C351.013 764.659 349.655 764.34 348.119 764.572C347.095 764.726 346.205 765.11 345.45 765.723C344.715 766.308 344.179 767.05 343.841 767.949C343.499 768.823 343.405 769.773 343.56 770.797C343.795 772.357 344.49 773.574 345.645 774.448Z" fill="#332E2D"/>
</g>
<defs>
<linearGradient id="paint0_linear_3_69" x1="1680.1" y1="14.6707" x2="1721.92" y2="-246.862" gradientUnits="userSpaceOnUse">
<stop offset="0.0111334" stop-color="#EBFDFF" stop-opacity="0.3"/>
<stop offset="0.583333" stop-color="#2669E6" stop-opacity="0"/>
<stop offset="1" stop-color="#2669E6" stop-opacity="0"/>
</linearGradient>
<linearGradient id="paint1_linear_3_69" x1="326.791" y1="1854.08" x2="537.998" y2="1957.59" gradientUnits="userSpaceOnUse">
<stop offset="0.0111334" stop-color="#EBFDFF" stop-opacity="0.37"/>
<stop offset="0.583333" stop-color="#3078FF" stop-opacity="0"/>
<stop offset="1" stop-color="#2669E6" stop-opacity="0"/>
</linearGradient>
<clipPath id="clip0_3_69">
<rect width="720" height="848" fill="white"/>
</clipPath>
<clipPath id="clip1_3_69">
<rect x="269.164" y="390.276" width="467.979" height="117.692" rx="36.8413" transform="rotate(-7.00218 269.164 390.276)" fill="white"/>
</clipPath>
<clipPath id="clip2_3_69">
<rect x="280.269" y="580.596" width="381.726" height="117.692" rx="36.8413" transform="rotate(16.3173 280.269 580.596)" fill="white"/>
</clipPath>
</defs>
</svg>
