<svg width="164" height="43" viewBox="0 0 164 43" fill="none" xmlns="http://www.w3.org/2000/svg">
<path d="M42.3724 37.7329H38.7699L33.96 31.6425V37.7329H31V25.2671H33.96V31.0192L38.4194 25.2671H41.8661L37.212 31.2329L42.3724 37.7329Z" fill="#6C27FF"/>
<path d="M48.7049 38C46.6278 38 44.8947 37.3826 43.5056 36.1479C42.1294 34.9014 41.4414 33.3521 41.4414 31.5C41.4414 29.6479 42.1294 28.1046 43.5056 26.8699C44.8947 25.6233 46.6278 25 48.7049 25C50.0681 25 51.3014 25.2849 52.4049 25.8548C53.5214 26.4128 54.3912 27.1904 55.0143 28.1877C55.6375 29.1731 55.949 30.2772 55.949 31.5C55.949 33.3639 55.261 34.9132 53.8849 36.1479C52.5087 37.3826 50.7821 38 48.7049 38ZM48.7049 35.4534C49.5098 35.4534 50.2368 35.2872 50.886 34.9548C51.5351 34.6105 52.0414 34.1356 52.4049 33.5301C52.7814 32.9247 52.9696 32.2479 52.9696 31.5C52.9696 30.3721 52.5607 29.4342 51.7428 28.6863C50.9379 27.9265 49.9253 27.5466 48.7049 27.5466C47.4976 27.5466 46.4785 27.9265 45.6476 28.6863C44.8297 29.4342 44.4208 30.3721 44.4208 31.5C44.4208 32.6279 44.8297 33.5717 45.6476 34.3315C46.4785 35.0795 47.4976 35.4534 48.7049 35.4534Z" fill="#6C27FF"/>
<path d="M63.7431 38C62.4319 38 61.2375 37.721 60.16 37.163C59.0825 36.5932 58.2386 35.8155 57.6285 34.8301C57.0183 33.8329 56.7132 32.7288 56.7132 31.5178C56.7132 29.6658 57.3818 28.1164 58.719 26.8699C60.0691 25.6233 61.7438 25 63.7431 25C65.4048 25 66.8394 25.4571 68.0467 26.3712C69.2541 27.2854 70.02 28.4845 70.3446 29.9685H67.3846C67.2029 29.4817 66.9367 29.0603 66.5862 28.7041C66.2357 28.3361 65.8138 28.0571 65.3204 27.8671C64.8401 27.6653 64.3143 27.5644 63.7431 27.5644C62.5877 27.5644 61.6205 27.9443 60.8416 28.7041C60.0756 29.4521 59.6926 30.39 59.6926 31.5178C59.6926 32.6338 60.0756 33.5658 60.8416 34.3137C61.6205 35.0616 62.5877 35.4356 63.7431 35.4356C64.6389 35.4356 65.4113 35.2041 66.0604 34.7411C66.7095 34.2781 67.1574 33.6489 67.4041 32.8534H70.3835C70.0719 34.3968 69.306 35.6434 68.0857 36.5932C66.8783 37.5311 65.4308 38 63.7431 38Z" fill="#6C27FF"/>
<path d="M88.4447 37.7329H85.4459L84.1022 29.5945L80.0323 37.7151H79.3117L75.2418 29.5945L73.8981 37.7329H70.8798L73.0218 25.2671H75.9818L79.6623 32.9068L83.3622 25.2671H86.3222L88.4447 37.7329Z" fill="#6C27FF"/>
<path d="M96.2686 38C94.1915 38 92.4583 37.3826 91.0692 36.1479C89.6931 34.9014 89.0051 33.3521 89.0051 31.5C89.0051 29.6479 89.6931 28.1046 91.0692 26.8699C92.4583 25.6233 94.1915 25 96.2686 25C97.6318 25 98.8651 25.2849 99.9686 25.8548C101.085 26.4128 101.955 27.1904 102.578 28.1877C103.201 29.1731 103.513 30.2772 103.513 31.5C103.513 33.3639 102.825 34.9132 101.449 36.1479C100.072 37.3826 98.3458 38 96.2686 38ZM96.2686 35.4534C97.0735 35.4534 97.8005 35.2872 98.4496 34.9548C99.0988 34.6105 99.6051 34.1356 99.9686 33.5301C100.345 32.9247 100.533 32.2479 100.533 31.5C100.533 30.3721 100.124 29.4342 99.3065 28.6863C98.5016 27.9265 97.489 27.5466 96.2686 27.5466C95.0613 27.5466 94.0422 27.9265 93.2113 28.6863C92.3934 29.4342 91.9845 30.3721 91.9845 31.5C91.9845 32.6279 92.3934 33.5717 93.2113 34.3315C94.0422 35.0795 95.0613 35.4534 96.2686 35.4534Z" fill="#6C27FF"/>
<path d="M105.056 25.2671H119.669V37.7329H116.728V27.7781H108.016V37.7329H105.056V25.2671Z" fill="#6C27FF"/>
<path d="M128.472 38C126.395 38 124.662 37.3826 123.273 36.1479C121.897 34.9014 121.209 33.3521 121.209 31.5C121.209 29.6479 121.897 28.1046 123.273 26.8699C124.662 25.6233 126.395 25 128.472 25C129.835 25 131.069 25.2849 132.172 25.8548C133.289 26.4128 134.159 27.1904 134.782 28.1877C135.405 29.1731 135.716 30.2772 135.716 31.5C135.716 33.3639 135.028 34.9132 133.652 36.1479C132.276 37.3826 130.549 38 128.472 38ZM128.472 35.4534C129.277 35.4534 130.004 35.2872 130.653 34.9548C131.302 34.6105 131.809 34.1356 132.172 33.5301C132.549 32.9247 132.737 32.2479 132.737 31.5C132.737 30.3721 132.328 29.4342 131.51 28.6863C130.705 27.9265 129.693 27.5466 128.472 27.5466C127.265 27.5466 126.246 27.9265 125.415 28.6863C124.597 29.4342 124.188 30.3721 124.188 31.5C124.188 32.6279 124.597 33.5717 125.415 34.3315C126.246 35.0795 127.265 35.4534 128.472 35.4534Z" fill="#6C27FF"/>
<path d="M148.498 25.2671C149.874 25.2671 151.023 25.6767 151.945 26.4959C152.866 27.3032 153.327 28.3242 153.327 29.5589C153.327 30.7817 152.866 31.8027 151.945 32.6219C151.023 33.4292 149.874 33.8329 148.498 33.8329H140.219V37.7329H137.259V25.2671H148.498ZM148.381 31.3397C148.965 31.3397 149.433 31.1735 149.783 30.8411C150.147 30.5087 150.328 30.0813 150.328 29.5589C150.328 29.0365 150.147 28.6091 149.783 28.2767C149.433 27.9324 148.965 27.7603 148.381 27.7603H140.219V31.3397H148.381Z" fill="#6C27FF"/>
<path d="M164 25.2671V27.7781H160.203V37.7329H157.243V27.7781H153.465V25.2671H164Z" fill="#6C27FF"/>
<ellipse cx="18.5863" cy="13.3549" rx="18.5863" ry="13.3549" transform="matrix(0.87065 -0.491902 0.398195 0.917301 0 18.2853)" fill="#6C27FF"/>
<ellipse cx="14.8144" cy="11.2858" rx="14.8144" ry="11.2858" transform="matrix(0.87065 -0.491902 0.398195 0.917301 5.03638 17.2496)" fill="white"/>
<circle cx="28.2996" cy="6.41963" r="4.09529" fill="#6C27FF"/>
<ellipse cx="27.3241" cy="4.86064" rx="2.03675" ry="1.39356" transform="rotate(-33.5942 27.3241 4.86064)" fill="white"/>
<ellipse cx="16.0891" cy="24.7679" rx="12.0288" ry="12.1185" fill="#6C27FF"/>
<path d="M26.6203 23.7433C26.6203 28.8542 22.202 33.7378 16.7517 33.7378C11.3014 33.7378 6.52806 29.0411 6.91288 23.628C7.30242 18.1486 11.3014 14.4891 16.7517 14.4891C22.202 14.4891 26.6203 18.6324 26.6203 23.7433Z" fill="white"/>
</svg>
