<svg width="203" height="65" viewBox="0 0 203 65" fill="none" xmlns="http://www.w3.org/2000/svg">
<path d="M63.4618 54.6757H59.0096L53.0653 46.4451V54.6757H49.4073V37.8295H53.0653V45.6028L58.5764 37.8295H62.8361L57.0843 45.8916L63.4618 54.6757ZM71.2877 55.0366C68.7207 55.0366 66.5788 54.2024 64.8621 52.5338C63.1615 50.8492 62.3112 48.7554 62.3112 46.2526C62.3112 43.7497 63.1615 41.664 64.8621 39.9955C66.5788 38.3109 68.7207 37.4685 71.2877 37.4685C72.9723 37.4685 74.4965 37.8536 75.8603 38.6237C77.24 39.3778 78.315 40.4287 79.0851 41.7763C79.8552 43.108 80.2402 44.6001 80.2402 46.2526C80.2402 48.7715 79.3899 50.8652 77.6893 52.5338C75.9886 54.2024 73.8548 55.0366 71.2877 55.0366ZM71.2877 51.5952C72.2825 51.5952 73.1809 51.3706 73.9831 50.9214C74.7853 50.4561 75.411 49.8143 75.8603 48.9961C76.3255 48.1779 76.5582 47.2634 76.5582 46.2526C76.5582 44.7284 76.0528 43.461 75.042 42.4502C74.0473 41.4234 72.7959 40.91 71.2877 40.91C69.7957 40.91 68.5362 41.4234 67.5094 42.4502C66.4986 43.461 65.9932 44.7284 65.9932 46.2526C65.9932 47.7768 66.4986 49.0523 67.5094 50.0791C68.5362 51.0898 69.7957 51.5952 71.2877 51.5952ZM89.8724 55.0366C88.252 55.0366 86.776 54.6596 85.4443 53.9056C84.1127 53.1354 83.0698 52.0846 82.3157 50.7529C81.5617 49.4052 81.1846 47.9131 81.1846 46.2767C81.1846 43.7738 82.0109 41.6801 83.6634 39.9955C85.332 38.3109 87.4017 37.4685 89.8724 37.4685C91.9261 37.4685 93.6989 38.0862 95.191 39.3216C96.6831 40.557 97.6297 42.1774 98.0308 44.1829H94.3728C94.1481 43.5251 93.8192 42.9556 93.3861 42.4743C92.9529 41.9769 92.4314 41.5999 91.8218 41.3432C91.2281 41.0704 90.5784 40.934 89.8724 40.934C88.4445 40.934 87.2493 41.4474 86.2866 42.4743C85.34 43.485 84.8667 44.7525 84.8667 46.2767C84.8667 47.7848 85.34 49.0442 86.2866 50.055C87.2493 51.0658 88.4445 51.5712 89.8724 51.5712C90.9795 51.5712 91.9341 51.2583 92.7363 50.6326C93.5385 50.0069 94.092 49.1565 94.3968 48.0816H98.0789C97.6939 50.1673 96.7473 51.8519 95.2391 53.1354C93.747 54.4029 91.9581 55.0366 89.8724 55.0366ZM120.4 54.6757H116.693L115.033 43.6775L110.003 54.6516H109.113L104.083 43.6775L102.422 54.6757H98.6922L101.339 37.8295H104.997L109.546 48.1538L114.118 37.8295H117.776L120.4 54.6757ZM130.069 55.0366C127.502 55.0366 125.36 54.2024 123.643 52.5338C121.942 50.8492 121.092 48.7554 121.092 46.2526C121.092 43.7497 121.942 41.664 123.643 39.9955C125.36 38.3109 127.502 37.4685 130.069 37.4685C131.753 37.4685 133.277 37.8536 134.641 38.6237C136.021 39.3778 137.096 40.4287 137.866 41.7763C138.636 43.108 139.021 44.6001 139.021 46.2526C139.021 48.7715 138.171 50.8652 136.47 52.5338C134.77 54.2024 132.636 55.0366 130.069 55.0366ZM130.069 51.5952C131.063 51.5952 131.962 51.3706 132.764 50.9214C133.566 50.4561 134.192 49.8143 134.641 48.9961C135.106 48.1779 135.339 47.2634 135.339 46.2526C135.339 44.7284 134.834 43.461 133.823 42.4502C132.828 41.4234 131.577 40.91 130.069 40.91C128.577 40.91 127.317 41.4234 126.29 42.4502C125.28 43.461 124.774 44.7284 124.774 46.2526C124.774 47.7768 125.28 49.0523 126.29 50.0791C127.317 51.0898 128.577 51.5952 130.069 51.5952ZM140.928 37.8295H154.044V54.6757H150.41V41.2228H144.586V54.6757H140.928V37.8295ZM164.924 55.0366C162.357 55.0366 160.215 54.2024 158.498 52.5338C156.798 50.8492 155.947 48.7554 155.947 46.2526C155.947 43.7497 156.798 41.664 158.498 39.9955C160.215 38.3109 162.357 37.4685 164.924 37.4685C166.608 37.4685 168.133 37.8536 169.496 38.6237C170.876 39.3778 171.951 40.4287 172.721 41.7763C173.491 43.108 173.876 44.6001 173.876 46.2526C173.876 48.7715 173.026 50.8652 171.325 52.5338C169.625 54.2024 167.491 55.0366 164.924 55.0366ZM164.924 51.5952C165.919 51.5952 166.817 51.3706 167.619 50.9214C168.421 50.4561 169.047 49.8143 169.496 48.9961C169.962 48.1779 170.194 47.2634 170.194 46.2526C170.194 44.7284 169.689 43.461 168.678 42.4502C167.683 41.4234 166.432 40.91 164.924 40.91C163.432 40.91 162.172 41.4234 161.145 42.4502C160.135 43.461 159.629 44.7284 159.629 46.2526C159.629 47.7768 160.135 49.0523 161.145 50.0791C162.172 51.0898 163.432 51.5952 164.924 51.5952ZM182.257 37.8295C183.958 37.8295 185.378 38.383 186.517 39.4901C187.656 40.5811 188.225 41.9608 188.225 43.6294C188.225 45.2819 187.656 46.6617 186.517 47.7687C185.378 48.8597 183.958 49.4052 182.257 49.4052H179.441V54.6757H175.783V37.8295H182.257ZM182.113 46.036C182.835 46.036 183.412 45.8114 183.845 45.3622C184.295 44.9129 184.519 44.3353 184.519 43.6294C184.519 42.9235 184.295 42.3459 183.845 41.8967C183.412 41.4314 182.835 41.1988 182.113 41.1988H179.441V46.036H182.113ZM201.415 37.8295V41.2228H196.722V54.6757H193.064V41.2228H188.396V37.8295H201.415Z" fill="white"/>
<ellipse cx="27.8286" cy="19.9958" rx="27.8286" ry="19.9958" transform="matrix(0.87065 -0.491902 0.398195 0.917301 0 27.3779)" fill="white"/>
<ellipse cx="22.1811" cy="16.8978" rx="22.1811" ry="16.8978" transform="matrix(0.87065 -0.491902 0.398195 0.917301 7.54102 25.8272)" fill="#332E2D"/>
<circle cx="42.3722" cy="9.61185" r="6.13174" fill="white"/>
<ellipse cx="40.9115" cy="7.27744" rx="3.04956" ry="2.08654" transform="rotate(-33.5942 40.9115 7.27744)" fill="#332E2D"/>
<ellipse cx="24.0896" cy="37.084" rx="18.0103" ry="18.1447" fill="white"/>
<path d="M39.8573 35.55C39.8573 43.2024 33.2419 50.5144 25.0814 50.5144C16.9209 50.5144 9.77392 43.4821 10.3501 35.3774C10.9333 27.1732 16.9209 21.694 25.0814 21.694C33.2419 21.694 39.8573 27.8975 39.8573 35.55Z" fill="#332E2D"/>
</svg>
